<svg width="1440" height="1525" viewBox="0 0 1440 1525" fill="none" xmlns="http://www.w3.org/2000/svg">
<g filter="url(#filter0_f_1120_113)">
<ellipse cx="592.936" cy="12.505" rx="376.323" ry="217" transform="rotate(-20.07 592.936 12.505)" fill="#01FFD2"/>
</g>
<g filter="url(#filter1_f_1120_113)">
<ellipse cx="1433.59" cy="588.564" rx="305.772" ry="181.816" transform="rotate(-79.4797 1433.59 588.564)" fill="#2672EC"/>
</g>
<g filter="url(#filter2_f_1120_113)">
<ellipse cx="50.6896" cy="815.851" rx="216.291" ry="122.988" transform="rotate(-108.478 50.6896 815.851)" fill="#FF52F8"/>
</g>
<path fill-rule="evenodd" clip-rule="evenodd" d="M-11.9694 143.751V189.269H-61.999V189.658H-11.9694V237.316H-61.999V237.705H-11.9694V286.53H-61.999V286.919H-11.9694V332.438H-61.999V332.827H-11.9694V380.484H-61.999V380.874H-11.9694V429.699H-61.999V430.088H-11.9694V476.189H-11.5399V430.088H42.3547V476.189H42.7841V430.088H95.3904V476.189H95.8198V430.088H147.353V476.189H147.782V430.088H201.677V476.189H202.106V430.088H254.712V476.189H255.142V430.088H306.674V476.189H307.104V430.088H360.998V476.189H361.428V430.088H414.034V476.189H414.464V430.088H465.996V476.189H466.426V430.088H520.32V476.189H520.75V430.088H573.356V476.189H573.786V430.088H625.318V476.189H625.748V430.088H679.642V476.189H680.072V430.088H732.678V476.189H733.107V430.088H783.566V429.699H733.107V380.874H783.566V380.484H733.107V332.827H783.566V332.438H733.107V286.919H783.566V286.53H733.107V237.705H783.566V237.316H733.107V189.658H783.566V189.269H733.107V143.751H783.566V143.362H733.107V94.5372H783.566V94.1481H733.107V46.4903H783.566V46.1012H733.107V-0.000488281H732.678V46.1012H680.072V-0.000488281H679.642V46.1012H625.748V-0.000488281H625.318V46.1012H573.786V-0.000488281H573.356V46.1012H520.75V-0.000488281H520.32V46.1012H466.426V-0.000488281H465.996V46.1012H414.464V-0.000488281H414.034V46.1012H361.428V-0.000488281H360.998V46.1012H307.104V-0.000488281H306.674V46.1012H255.142V-0.000488281H254.712V46.1012H202.106V-0.000488281H201.677V46.1012H147.782V-0.000488281H147.353V46.1012H95.8198V-0.000488281H95.3904V46.1012H42.7841V-0.000488281H42.3547V46.1012H-11.5399V-0.000488281H-11.9694V46.1012H-61.999V46.4903H-11.9694V94.1481H-61.999V94.5372H-11.9694V143.362H-61.999V143.751H-11.9694ZM732.678 332.438V286.919H680.072V332.438H732.678ZM679.642 332.438V286.919H625.748V332.438H679.642ZM625.318 332.438V286.919H573.786V332.438H625.318ZM573.356 332.438V286.919H520.75V332.438H573.356ZM520.32 332.438V286.919H466.426V332.438H520.32ZM465.996 332.438V286.919H414.464V332.438H465.996ZM414.464 332.827V380.484H465.996V332.827H414.464ZM466.426 332.827V380.484H520.32V332.827H466.426ZM520.75 332.827V380.484H573.356V332.827H520.75ZM573.786 332.827V380.484H625.318V332.827H573.786ZM625.748 332.827V380.484H679.642V332.827H625.748ZM680.072 380.484V332.827H732.678V380.484H680.072ZM679.642 380.874H625.748V429.699H679.642V380.874ZM680.072 429.699V380.874H732.678V429.699H680.072ZM625.318 429.699V380.874H573.786V429.699H625.318ZM573.356 429.699V380.874H520.75V429.699H573.356ZM520.32 429.699V380.874H466.426V429.699H520.32ZM465.996 429.699V380.874H414.464V429.699H465.996ZM465.996 286.53H414.464V237.705H465.996V286.53ZM465.996 237.316H414.464V189.658H465.996V237.316ZM465.996 189.269H414.464V143.751H465.996V189.269ZM520.32 189.269H466.426V143.751H520.32V189.269ZM520.75 189.269V143.751H573.356V189.269H520.75ZM625.318 189.269H573.786V143.751H625.318V189.269ZM625.748 189.269V143.751H679.642V189.269H625.748ZM679.642 189.658V237.316H625.748V189.658H679.642ZM680.072 189.658V237.316H732.678V189.658H680.072ZM679.642 237.705V286.53H625.748V237.705H679.642ZM680.072 237.705V286.53H732.678V237.705H680.072ZM625.318 237.705V286.53H573.786V237.705H625.318ZM573.356 237.705V286.53H520.75V237.705H573.356ZM520.32 237.705V286.53H466.426V237.705H520.32ZM680.072 189.269H732.678V143.751H680.072V189.269ZM625.318 189.658V237.316H573.786V189.658H625.318ZM573.356 189.658V237.316H520.75V189.658H573.356ZM520.32 189.658V237.316H466.426V189.658H520.32ZM414.464 46.4903V94.1481H465.996V46.4903H414.464ZM466.426 46.4903V94.1481H520.32V46.4903H466.426ZM520.75 46.4903V94.1481H573.356V46.4903H520.75ZM573.786 46.4903V94.1481H625.318V46.4903H573.786ZM625.748 46.4903V94.1481H679.642V46.4903H625.748ZM680.072 46.4903V94.1481H732.678V46.4903H680.072ZM732.678 94.5372H680.072V143.362H732.678V94.5372ZM679.642 143.362V94.5372H625.748V143.362H679.642ZM625.318 143.362V94.5372H573.786V143.362H625.318ZM573.356 143.362V94.5372H520.75V143.362H573.356ZM520.32 143.362V94.5372H466.426V143.362H520.32ZM465.996 143.362V94.5372H414.464V143.362H465.996ZM414.034 332.438V286.919H361.428V332.438H414.034ZM360.998 332.438V286.919H307.104V332.438H360.998ZM307.104 332.827V380.484H360.998V332.827H307.104ZM361.428 332.827V380.484H414.034V332.827H361.428ZM414.034 429.699V380.874H361.428V429.699H414.034ZM360.998 429.699V380.874H307.104V429.699H360.998ZM360.998 286.53H307.104V237.705H360.998V286.53ZM360.998 237.316H307.104V189.658H360.998V237.316ZM360.998 189.269H307.104V143.751H360.998V189.269ZM361.428 189.269V143.751H414.034V189.269H361.428ZM414.034 237.705V286.53H361.428V237.705H414.034ZM414.034 189.658V237.316H361.428V189.658H414.034ZM307.104 46.4903V94.1481H360.998V46.4903H307.104ZM361.428 46.4903V94.1481H414.034V46.4903H361.428ZM414.034 143.362V94.5372H361.428V143.362H414.034ZM360.998 143.362V94.5372H307.104V143.362H360.998ZM306.674 332.438V286.919H255.142V332.438H306.674ZM254.712 332.438V286.919H202.106V332.438H254.712ZM201.677 332.438V286.919H147.782V332.438H201.677ZM147.782 332.827V380.484H201.677V332.827H147.782ZM202.106 332.827V380.484H254.712V332.827H202.106ZM255.142 332.827V380.484H306.674V332.827H255.142ZM306.674 429.699V380.874H255.142V429.699H306.674ZM254.712 429.699V380.874H202.106V429.699H254.712ZM201.677 429.699V380.874H147.782V429.699H201.677ZM201.677 286.53H147.782V237.705H201.677V286.53ZM201.677 237.316H147.782V189.658H201.677V237.316ZM201.677 189.269H147.782V143.751H201.677V189.269ZM254.712 189.269H202.106V143.751H254.712V189.269ZM255.142 189.269V143.751H306.674V189.269H255.142ZM306.674 237.705V286.53H255.142V237.705H306.674ZM254.712 237.705V286.53H202.106V237.705H254.712ZM306.674 189.658V237.316H255.142V189.658H306.674ZM254.712 189.658V237.316H202.106V189.658H254.712ZM147.782 46.4903V94.1481H201.677V46.4903H147.782ZM202.106 46.4903V94.1481H254.712V46.4903H202.106ZM255.142 46.4903V94.1481H306.674V46.4903H255.142ZM306.674 143.362V94.5372H255.142V143.362H306.674ZM254.712 143.362V94.5372H202.106V143.362H254.712ZM201.677 143.362V94.5372H147.782V143.362H201.677ZM147.353 332.438V286.919H95.8198V332.438H147.353ZM95.3904 332.438V286.919H42.7841V332.438H95.3904ZM42.7841 332.827V380.484H95.3904V332.827H42.7841ZM95.8198 332.827V380.484H147.353V332.827H95.8198ZM42.7841 380.874V429.699H95.3904V380.874H42.7841ZM95.8198 380.874V429.699H147.353V380.874H95.8198ZM95.3904 286.53H42.7841V237.705H95.3904V286.53ZM95.3904 237.316H42.7841V189.658H95.3904V237.316ZM95.3904 189.269H42.7841V143.751H95.3904V189.269ZM147.353 189.269H95.8198V143.751H147.353V189.269ZM95.8198 237.316V189.658H147.353V237.316H95.8198ZM95.8198 286.53V237.705H147.353V286.53H95.8198ZM42.7841 46.4903V94.1481H95.3904V46.4903H42.7841ZM95.8198 46.4903V94.1481H147.353V46.4903H95.8198ZM42.7841 94.5372V143.362H95.3904V94.5372H42.7841ZM95.8198 94.5372V143.362H147.353V94.5372H95.8198ZM42.3547 332.438V286.919H-11.5399V332.438H42.3547ZM-11.5399 332.827H42.3547V380.484H-11.5399V332.827ZM-11.5399 380.874V429.699H42.3547V380.874H-11.5399ZM-11.5399 237.316V189.658H42.3547V237.316H-11.5399ZM-11.5399 189.269H42.3547V143.751H-11.5399V189.269ZM42.3547 237.705V286.53H-11.5399V237.705H42.3547ZM-11.5399 143.362H42.3547V94.5372H-11.5399V143.362ZM-11.5399 94.1481H42.3547V46.4903H-11.5399V94.1481Z" fill="url(#paint0_linear_1120_113)" fill-opacity="0.9"/>
<path fill-rule="evenodd" clip-rule="evenodd" d="M-11.9694 583.957V629.475H-61.999V629.864H-11.9694V677.522H-61.999V677.911H-11.9694V726.736H-61.999V727.125H-11.9694V772.643H-61.999V773.032H-11.9694V820.69H-61.999V821.079H-11.9694V869.904H-61.999V870.293H-11.9694V916.395H-11.5399V870.293H42.3547V916.395H42.7841V870.293H95.3904V916.395H95.8198V870.293H147.353V916.395H147.782V870.293H201.677V916.395H202.106V870.293H254.712V916.395H255.142V870.293H306.674V916.395H307.104V870.293H360.998V916.395H361.428V870.293H414.034V916.395H414.464V870.293H465.996V916.395H466.426V870.293H520.32V916.395H520.75V870.293H573.356V916.395H573.786V870.293H625.318V916.395H625.748V870.293H679.642V916.395H680.072V870.293H732.678V916.395H733.107V870.293H783.566V869.904H733.107V821.079H783.566V820.69H733.107V773.032H783.566V772.643H733.107V727.125H783.566V726.736H733.107V677.911H783.566V677.522H733.107V629.864H783.566V629.475H733.107V583.957H783.566V583.568H733.107V534.743H783.566V534.354H733.107V486.696H783.566V486.307H733.107V440.205H732.678V486.307H680.072V440.205H679.642V486.307H625.748V440.205H625.318V486.307H573.786V440.205H573.356V486.307H520.75V440.205H520.32V486.307H466.426V440.205H465.996V486.307H414.464V440.205H414.034V486.307H361.428V440.205H360.998V486.307H307.104V440.205H306.674V486.307H255.142V440.205H254.712V486.307H202.106V440.205H201.677V486.307H147.782V440.205H147.353V486.307H95.8198V440.205H95.3904V486.307H42.7841V440.205H42.3547V486.307H-11.5399V440.205H-11.9694V486.307H-61.999V486.696H-11.9694V534.354H-61.999V534.743H-11.9694V583.568H-61.999V583.957H-11.9694ZM732.678 772.643V727.125H680.072V772.643H732.678ZM679.642 772.643V727.125H625.748V772.643H679.642ZM625.318 772.643V727.125H573.786V772.643H625.318ZM573.356 772.643V727.125H520.75V772.643H573.356ZM520.32 772.643V727.125H466.426V772.643H520.32ZM465.996 772.643V727.125H414.464V772.643H465.996ZM414.464 773.032V820.69H465.996V773.032H414.464ZM466.426 773.032V820.69H520.32V773.032H466.426ZM520.75 773.032V820.69H573.356V773.032H520.75ZM573.786 773.032V820.69H625.318V773.032H573.786ZM625.748 773.032V820.69H679.642V773.032H625.748ZM680.072 820.69V773.032H732.678V820.69H680.072ZM679.642 821.079H625.748V869.904H679.642V821.079ZM680.072 869.904V821.079H732.678V869.904H680.072ZM625.318 869.904V821.079H573.786V869.904H625.318ZM573.356 869.904V821.079H520.75V869.904H573.356ZM520.32 869.904V821.079H466.426V869.904H520.32ZM465.996 869.904V821.079H414.464V869.904H465.996ZM465.996 726.736H414.464V677.911H465.996V726.736ZM465.996 677.522H414.464V629.864H465.996V677.522ZM465.996 629.475H414.464V583.957H465.996V629.475ZM520.32 629.475H466.426V583.957H520.32V629.475ZM520.75 629.475V583.957H573.356V629.475H520.75ZM625.318 629.475H573.786V583.957H625.318V629.475ZM625.748 629.475V583.957H679.642V629.475H625.748ZM679.642 629.864V677.522H625.748V629.864H679.642ZM680.072 629.864V677.522H732.678V629.864H680.072ZM679.642 677.911V726.736H625.748V677.911H679.642ZM680.072 677.911V726.736H732.678V677.911H680.072ZM625.318 677.911V726.736H573.786V677.911H625.318ZM573.356 677.911V726.736H520.75V677.911H573.356ZM520.32 677.911V726.736H466.426V677.911H520.32ZM680.072 629.475H732.678V583.957H680.072V629.475ZM625.318 629.864V677.522H573.786V629.864H625.318ZM573.356 629.864V677.522H520.75V629.864H573.356ZM520.32 629.864V677.522H466.426V629.864H520.32ZM414.464 486.696V534.354H465.996V486.696H414.464ZM466.426 486.696V534.354H520.32V486.696H466.426ZM520.75 486.696V534.354H573.356V486.696H520.75ZM573.786 486.696V534.354H625.318V486.696H573.786ZM625.748 486.696V534.354H679.642V486.696H625.748ZM680.072 486.696V534.354H732.678V486.696H680.072ZM732.678 534.743H680.072V583.568H732.678V534.743ZM679.642 583.568V534.743H625.748V583.568H679.642ZM625.318 583.568V534.743H573.786V583.568H625.318ZM573.356 583.568V534.743H520.75V583.568H573.356ZM520.32 583.568V534.743H466.426V583.568H520.32ZM465.996 583.568V534.743H414.464V583.568H465.996ZM414.034 772.643V727.125H361.428V772.643H414.034ZM360.998 772.643V727.125H307.104V772.643H360.998ZM307.104 773.032V820.69H360.998V773.032H307.104ZM361.428 773.032V820.69H414.034V773.032H361.428ZM414.034 869.904V821.079H361.428V869.904H414.034ZM360.998 869.904V821.079H307.104V869.904H360.998ZM360.998 726.736H307.104V677.911H360.998V726.736ZM360.998 677.522H307.104V629.864H360.998V677.522ZM360.998 629.475H307.104V583.957H360.998V629.475ZM361.428 629.475V583.957H414.034V629.475H361.428ZM414.034 677.911V726.736H361.428V677.911H414.034ZM414.034 629.864V677.522H361.428V629.864H414.034ZM307.104 486.696V534.354H360.998V486.696H307.104ZM361.428 486.696V534.354H414.034V486.696H361.428ZM414.034 583.568V534.743H361.428V583.568H414.034ZM360.998 583.568V534.743H307.104V583.568H360.998ZM306.674 772.643V727.125H255.142V772.643H306.674ZM254.712 772.643V727.125H202.106V772.643H254.712ZM201.677 772.643V727.125H147.782V772.643H201.677ZM147.782 773.032V820.69H201.677V773.032H147.782ZM202.106 773.032V820.69H254.712V773.032H202.106ZM255.142 773.032V820.69H306.674V773.032H255.142ZM306.674 869.904V821.079H255.142V869.904H306.674ZM254.712 869.904V821.079H202.106V869.904H254.712ZM201.677 869.904V821.079H147.782V869.904H201.677ZM201.677 726.736H147.782V677.911H201.677V726.736ZM201.677 677.522H147.782V629.864H201.677V677.522ZM201.677 629.475H147.782V583.957H201.677V629.475ZM254.712 629.475H202.106V583.957H254.712V629.475ZM255.142 629.475V583.957H306.674V629.475H255.142ZM306.674 677.911V726.736H255.142V677.911H306.674ZM254.712 677.911V726.736H202.106V677.911H254.712ZM306.674 629.864V677.522H255.142V629.864H306.674ZM254.712 629.864V677.522H202.106V629.864H254.712ZM147.782 486.696V534.354H201.677V486.696H147.782ZM202.106 486.696V534.354H254.712V486.696H202.106ZM255.142 486.696V534.354H306.674V486.696H255.142ZM306.674 583.568V534.743H255.142V583.568H306.674ZM254.712 583.568V534.743H202.106V583.568H254.712ZM201.677 583.568V534.743H147.782V583.568H201.677ZM147.353 772.643V727.125H95.8198V772.643H147.353ZM95.3904 772.643V727.125H42.7841V772.643H95.3904ZM42.7841 773.032V820.69H95.3904V773.032H42.7841ZM95.8198 773.032V820.69H147.353V773.032H95.8198ZM42.7841 821.079V869.904H95.3904V821.079H42.7841ZM95.8198 821.079V869.904H147.353V821.079H95.8198ZM95.3904 726.736H42.7841V677.911H95.3904V726.736ZM95.3904 677.522H42.7841V629.864H95.3904V677.522ZM95.3904 629.475H42.7841V583.957H95.3904V629.475ZM147.353 629.475H95.8198V583.957H147.353V629.475ZM95.8198 677.522V629.864H147.353V677.522H95.8198ZM95.8198 726.736V677.911H147.353V726.736H95.8198ZM42.7841 486.696V534.354H95.3904V486.696H42.7841ZM95.8198 486.696V534.354H147.353V486.696H95.8198ZM42.7841 534.743V583.568H95.3904V534.743H42.7841ZM95.8198 534.743V583.568H147.353V534.743H95.8198ZM42.3547 772.643V727.125H-11.5399V772.643H42.3547ZM-11.5399 773.032H42.3547V820.69H-11.5399V773.032ZM-11.5399 821.079V869.904H42.3547V821.079H-11.5399ZM-11.5399 677.522V629.864H42.3547V677.522H-11.5399ZM-11.5399 629.475H42.3547V583.957H-11.5399V629.475ZM42.3547 677.911V726.736H-11.5399V677.911H42.3547ZM-11.5399 583.568H42.3547V534.743H-11.5399V583.568ZM-11.5399 534.354H42.3547V486.696H-11.5399V534.354Z" fill="url(#paint1_linear_1120_113)" fill-opacity="0.9"/>
<path fill-rule="evenodd" clip-rule="evenodd" d="M-11.9694 1026.56V1072.08H-61.999V1072.47H-11.9694V1120.13H-61.999V1120.52H-11.9694V1169.34H-61.999V1169.73H-11.9694V1215.25H-61.999V1215.64H-11.9694V1263.29H-61.999V1263.68H-11.9694V1312.51H-61.999V1312.9H-11.9694V1359H-11.5399V1312.9H42.3547V1359H42.7841V1312.9H95.3904V1359H95.8198V1312.9H147.353V1359H147.782V1312.9H201.677V1359H202.106V1312.9H254.712V1359H255.142V1312.9H306.674V1359H307.104V1312.9H360.998V1359H361.428V1312.9H414.034V1359H414.464V1312.9H465.996V1359H466.426V1312.9H520.32V1359H520.75V1312.9H573.356V1359H573.786V1312.9H625.318V1359H625.748V1312.9H679.642V1359H680.072V1312.9H732.678V1359H733.107V1312.9H783.566V1312.51H733.107V1263.68H783.566V1263.29H733.107V1215.64H783.566V1215.25H733.107V1169.73H783.566V1169.34H733.107V1120.52H783.566V1120.13H733.107V1072.47H783.566V1072.08H733.107V1026.56H783.566V1026.17H733.107V977.347H783.566V976.958H733.107V929.3H783.566V928.911H733.107V882.81H732.678V928.911H680.072V882.81H679.642V928.911H625.748V882.81H625.318V928.911H573.786V882.81H573.356V928.911H520.75V882.81H520.32V928.911H466.426V882.81H465.996V928.911H414.464V882.81H414.034V928.911H361.428V882.81H360.998V928.911H307.104V882.81H306.674V928.911H255.142V882.81H254.712V928.911H202.106V882.81H201.677V928.911H147.782V882.81H147.353V928.911H95.8198V882.81H95.3904V928.911H42.7841V882.81H42.3547V928.911H-11.5399V882.81H-11.9694V928.911H-61.999V929.3H-11.9694V976.958H-61.999V977.347H-11.9694V1026.17H-61.999V1026.56H-11.9694ZM732.678 1215.25V1169.73H680.072V1215.25H732.678ZM679.642 1215.25V1169.73H625.748V1215.25H679.642ZM625.318 1215.25V1169.73H573.786V1215.25H625.318ZM573.356 1215.25V1169.73H520.75V1215.25H573.356ZM520.32 1215.25V1169.73H466.426V1215.25H520.32ZM465.996 1215.25V1169.73H414.464V1215.25H465.996ZM414.464 1215.64V1263.29H465.996V1215.64H414.464ZM466.426 1215.64V1263.29H520.32V1215.64H466.426ZM520.75 1215.64V1263.29H573.356V1215.64H520.75ZM573.786 1215.64V1263.29H625.318V1215.64H573.786ZM625.748 1215.64V1263.29H679.642V1215.64H625.748ZM680.072 1263.29V1215.64H732.678V1263.29H680.072ZM679.642 1263.68H625.748V1312.51H679.642V1263.68ZM680.072 1312.51V1263.68H732.678V1312.51H680.072ZM625.318 1312.51V1263.68H573.786V1312.51H625.318ZM573.356 1312.51V1263.68H520.75V1312.51H573.356ZM520.32 1312.51V1263.68H466.426V1312.51H520.32ZM465.996 1312.51V1263.68H414.464V1312.51H465.996ZM465.996 1169.34H414.464V1120.52H465.996V1169.34ZM465.996 1120.13H414.464V1072.47H465.996V1120.13ZM465.996 1072.08H414.464V1026.56H465.996V1072.08ZM520.32 1072.08H466.426V1026.56H520.32V1072.08ZM520.75 1072.08V1026.56H573.356V1072.08H520.75ZM625.318 1072.08H573.786V1026.56H625.318V1072.08ZM625.748 1072.08V1026.56H679.642V1072.08H625.748ZM679.642 1072.47V1120.13H625.748V1072.47H679.642ZM680.072 1072.47V1120.13H732.678V1072.47H680.072ZM679.642 1120.52V1169.34H625.748V1120.52H679.642ZM680.072 1120.52V1169.34H732.678V1120.52H680.072ZM625.318 1120.52V1169.34H573.786V1120.52H625.318ZM573.356 1120.52V1169.34H520.75V1120.52H573.356ZM520.32 1120.52V1169.34H466.426V1120.52H520.32ZM680.072 1072.08H732.678V1026.56H680.072V1072.08ZM625.318 1072.47V1120.13H573.786V1072.47H625.318ZM573.356 1072.47V1120.13H520.75V1072.47H573.356ZM520.32 1072.47V1120.13H466.426V1072.47H520.32ZM414.464 929.3V976.958H465.996V929.3H414.464ZM466.426 929.3V976.958H520.32V929.3H466.426ZM520.75 929.3V976.958H573.356V929.3H520.75ZM573.786 929.3V976.958H625.318V929.3H573.786ZM625.748 929.3V976.958H679.642V929.3H625.748ZM680.072 929.3V976.958H732.678V929.3H680.072ZM732.678 977.347H680.072V1026.17H732.678V977.347ZM679.642 1026.17V977.347H625.748V1026.17H679.642ZM625.318 1026.17V977.347H573.786V1026.17H625.318ZM573.356 1026.17V977.347H520.75V1026.17H573.356ZM520.32 1026.17V977.347H466.426V1026.17H520.32ZM465.996 1026.17V977.347H414.464V1026.17H465.996ZM414.034 1215.25V1169.73H361.428V1215.25H414.034ZM360.998 1215.25V1169.73H307.104V1215.25H360.998ZM307.104 1215.64V1263.29H360.998V1215.64H307.104ZM361.428 1215.64V1263.29H414.034V1215.64H361.428ZM414.034 1312.51V1263.68H361.428V1312.51H414.034ZM360.998 1312.51V1263.68H307.104V1312.51H360.998ZM360.998 1169.34H307.104V1120.52H360.998V1169.34ZM360.998 1120.13H307.104V1072.47H360.998V1120.13ZM360.998 1072.08H307.104V1026.56H360.998V1072.08ZM361.428 1072.08V1026.56H414.034V1072.08H361.428ZM414.034 1120.52V1169.34H361.428V1120.52H414.034ZM414.034 1072.47V1120.13H361.428V1072.47H414.034ZM307.104 929.3V976.958H360.998V929.3H307.104ZM361.428 929.3V976.958H414.034V929.3H361.428ZM414.034 1026.17V977.347H361.428V1026.17H414.034ZM360.998 1026.17V977.347H307.104V1026.17H360.998ZM306.674 1215.25V1169.73H255.142V1215.25H306.674ZM254.712 1215.25V1169.73H202.106V1215.25H254.712ZM201.677 1215.25V1169.73H147.782V1215.25H201.677ZM147.782 1215.64V1263.29H201.677V1215.64H147.782ZM202.106 1215.64V1263.29H254.712V1215.64H202.106ZM255.142 1215.64V1263.29H306.674V1215.64H255.142ZM306.674 1312.51V1263.68H255.142V1312.51H306.674ZM254.712 1312.51V1263.68H202.106V1312.51H254.712ZM201.677 1312.51V1263.68H147.782V1312.51H201.677ZM201.677 1169.34H147.782V1120.52H201.677V1169.34ZM201.677 1120.13H147.782V1072.47H201.677V1120.13ZM201.677 1072.08H147.782V1026.56H201.677V1072.08ZM254.712 1072.08H202.106V1026.56H254.712V1072.08ZM255.142 1072.08V1026.56H306.674V1072.08H255.142ZM306.674 1120.52V1169.34H255.142V1120.52H306.674ZM254.712 1120.52V1169.34H202.106V1120.52H254.712ZM306.674 1072.47V1120.13H255.142V1072.47H306.674ZM254.712 1072.47V1120.13H202.106V1072.47H254.712ZM147.782 929.3V976.958H201.677V929.3H147.782ZM202.106 929.3V976.958H254.712V929.3H202.106ZM255.142 929.3V976.958H306.674V929.3H255.142ZM306.674 1026.17V977.347H255.142V1026.17H306.674ZM254.712 1026.17V977.347H202.106V1026.17H254.712ZM201.677 1026.17V977.347H147.782V1026.17H201.677ZM147.353 1215.25V1169.73H95.8198V1215.25H147.353ZM95.3904 1215.25V1169.73H42.7841V1215.25H95.3904ZM42.7841 1215.64V1263.29H95.3904V1215.64H42.7841ZM95.8198 1215.64V1263.29H147.353V1215.64H95.8198ZM42.7841 1263.68V1312.51H95.3904V1263.68H42.7841ZM95.8198 1263.68V1312.51H147.353V1263.68H95.8198ZM95.3904 1169.34H42.7841V1120.52H95.3904V1169.34ZM95.3904 1120.13H42.7841V1072.47H95.3904V1120.13ZM95.3904 1072.08H42.7841V1026.56H95.3904V1072.08ZM147.353 1072.08H95.8198V1026.56H147.353V1072.08ZM95.8198 1120.13V1072.47H147.353V1120.13H95.8198ZM95.8198 1169.34V1120.52H147.353V1169.34H95.8198ZM42.7841 929.3V976.958H95.3904V929.3H42.7841ZM95.8198 929.3V976.958H147.353V929.3H95.8198ZM42.7841 977.347V1026.17H95.3904V977.347H42.7841ZM95.8198 977.347V1026.17H147.353V977.347H95.8198ZM42.3547 1215.25V1169.73H-11.5399V1215.25H42.3547ZM-11.5399 1215.64H42.3547V1263.29H-11.5399V1215.64ZM-11.5399 1263.68V1312.51H42.3547V1263.68H-11.5399ZM-11.5399 1120.13V1072.47H42.3547V1120.13H-11.5399ZM-11.5399 1072.08H42.3547V1026.56H-11.5399V1072.08ZM42.3547 1120.52V1169.34H-11.5399V1120.52H42.3547ZM-11.5399 1026.17H42.3547V977.347H-11.5399V1026.17ZM-11.5399 976.958H42.3547V929.3H-11.5399V976.958Z" fill="url(#paint2_linear_1120_113)" fill-opacity="0.9"/>
<path fill-rule="evenodd" clip-rule="evenodd" d="M789.462 144.951V190.469H739.433V190.858H789.462V238.516H739.433V238.905H789.462V287.73H739.433V288.119H789.462V333.637H739.433V334.026H789.462V381.684H739.433V382.073H789.462V430.898H739.433V431.287H789.462V477.389H789.892V431.287H843.786V477.389H844.216V431.287H896.822V477.389H897.251V431.287H948.784V477.389H949.214V431.287H1003.11V477.389H1003.54V431.287H1056.14V477.389H1056.57V431.287H1108.11V477.389H1108.54V431.287H1162.43V477.389H1162.86V431.287H1215.47V477.389H1215.9V431.287H1267.43V477.389H1267.86V431.287H1321.75V477.389H1322.18V431.287H1374.79V477.389H1375.22V431.287H1426.75V477.389H1427.18V431.287H1481.07V477.389H1481.5V431.287H1534.11V477.389H1534.54V431.287H1585V430.898H1534.54V382.073H1585V381.684H1534.54V334.026H1585V333.637H1534.54V288.119H1585V287.73H1534.54V238.905H1585V238.516H1534.54V190.858H1585V190.469H1534.54V144.951H1585V144.562H1534.54V95.7367H1585V95.3476H1534.54V47.6897H1585V47.3007H1534.54V1.19898H1534.11V47.3007H1481.5V1.19898H1481.07V47.3007H1427.18V1.19898H1426.75V47.3007H1375.22V1.19898H1374.79V47.3007H1322.18V1.19898H1321.75V47.3007H1267.86V1.19898H1267.43V47.3007H1215.9V1.19898H1215.47V47.3007H1162.86V1.19898H1162.43V47.3007H1108.54V1.19898H1108.11V47.3007H1056.57V1.19898H1056.14V47.3007H1003.54V1.19898H1003.11V47.3007H949.214V1.19898H948.784V47.3007H897.251V1.19898H896.822V47.3007H844.216V1.19898H843.786V47.3007H789.892V1.19898H789.462V47.3007H739.433V47.6897H789.462V95.3476H739.433V95.7367H789.462V144.562H739.433V144.951H789.462ZM1534.11 333.637V288.119H1481.5V333.637H1534.11ZM1481.07 333.637V288.119H1427.18V333.637H1481.07ZM1426.75 333.637V288.119H1375.22V333.637H1426.75ZM1374.79 333.637V288.119H1322.18V333.637H1374.79ZM1321.75 333.637V288.119H1267.86V333.637H1321.75ZM1267.43 333.637V288.119H1215.9V333.637H1267.43ZM1215.9 334.026V381.684H1267.43V334.026H1215.9ZM1267.86 334.026V381.684H1321.75V334.026H1267.86ZM1322.18 334.026V381.684H1374.79V334.026H1322.18ZM1375.22 334.026V381.684H1426.75V334.026H1375.22ZM1427.18 334.026V381.684H1481.07V334.026H1427.18ZM1481.5 381.684V334.026H1534.11V381.684H1481.5ZM1481.07 382.073H1427.18V430.898H1481.07V382.073ZM1481.5 430.898V382.073H1534.11V430.898H1481.5ZM1426.75 430.898V382.073H1375.22V430.898H1426.75ZM1374.79 430.898V382.073H1322.18V430.898H1374.79ZM1321.75 430.898V382.073H1267.86V430.898H1321.75ZM1267.43 430.898V382.073H1215.9V430.898H1267.43ZM1267.43 287.73H1215.9V238.905H1267.43V287.73ZM1267.43 238.516H1215.9V190.858H1267.43V238.516ZM1267.43 190.469H1215.9V144.951H1267.43V190.469ZM1321.75 190.469H1267.86V144.951H1321.75V190.469ZM1322.18 190.469V144.951H1374.79V190.469H1322.18ZM1426.75 190.469H1375.22V144.951H1426.75V190.469ZM1427.18 190.469V144.951H1481.07V190.469H1427.18ZM1481.07 190.858V238.516H1427.18V190.858H1481.07ZM1481.5 190.858V238.516H1534.11V190.858H1481.5ZM1481.07 238.905V287.73H1427.18V238.905H1481.07ZM1481.5 238.905V287.73H1534.11V238.905H1481.5ZM1426.75 238.905V287.73H1375.22V238.905H1426.75ZM1374.79 238.905V287.73H1322.18V238.905H1374.79ZM1321.75 238.905V287.73H1267.86V238.905H1321.75ZM1481.5 190.469H1534.11V144.951H1481.5V190.469ZM1426.75 190.858V238.516H1375.22V190.858H1426.75ZM1374.79 190.858V238.516H1322.18V190.858H1374.79ZM1321.75 190.858V238.516H1267.86V190.858H1321.75ZM1215.9 47.6897V95.3476H1267.43V47.6897H1215.9ZM1267.86 47.6897V95.3476H1321.75V47.6897H1267.86ZM1322.18 47.6897V95.3476H1374.79V47.6897H1322.18ZM1375.22 47.6897V95.3476H1426.75V47.6897H1375.22ZM1427.18 47.6897V95.3476H1481.07V47.6897H1427.18ZM1481.5 47.6897V95.3476H1534.11V47.6897H1481.5ZM1534.11 95.7367H1481.5V144.562H1534.11V95.7367ZM1481.07 144.562V95.7367H1427.18V144.562H1481.07ZM1426.75 144.562V95.7367H1375.22V144.562H1426.75ZM1374.79 144.562V95.7367H1322.18V144.562H1374.79ZM1321.75 144.562V95.7367H1267.86V144.562H1321.75ZM1267.43 144.562V95.7367H1215.9V144.562H1267.43ZM1215.47 333.637V288.119H1162.86V333.637H1215.47ZM1162.43 333.637V288.119H1108.54V333.637H1162.43ZM1108.54 334.026V381.684H1162.43V334.026H1108.54ZM1162.86 334.026V381.684H1215.47V334.026H1162.86ZM1215.47 430.898V382.073H1162.86V430.898H1215.47ZM1162.43 430.898V382.073H1108.54V430.898H1162.43ZM1162.43 287.73H1108.54V238.905H1162.43V287.73ZM1162.43 238.516H1108.54V190.858H1162.43V238.516ZM1162.43 190.469H1108.54V144.951H1162.43V190.469ZM1162.86 190.469V144.951H1215.47V190.469H1162.86ZM1215.47 238.905V287.73H1162.86V238.905H1215.47ZM1215.47 190.858V238.516H1162.86V190.858H1215.47ZM1108.54 47.6897V95.3476H1162.43V47.6897H1108.54ZM1162.86 47.6897V95.3476H1215.47V47.6897H1162.86ZM1215.47 144.562V95.7367H1162.86V144.562H1215.47ZM1162.43 144.562V95.7367H1108.54V144.562H1162.43ZM1108.11 333.637V288.119H1056.57V333.637H1108.11ZM1056.14 333.637V288.119H1003.54V333.637H1056.14ZM1003.11 333.637V288.119H949.214V333.637H1003.11ZM949.214 334.026V381.684H1003.11V334.026H949.214ZM1003.54 334.026V381.684H1056.14V334.026H1003.54ZM1056.57 334.026V381.684H1108.11V334.026H1056.57ZM1108.11 430.898V382.073H1056.57V430.898H1108.11ZM1056.14 430.898V382.073H1003.54V430.898H1056.14ZM1003.11 430.898V382.073H949.214V430.898H1003.11ZM1003.11 287.73H949.214V238.905H1003.11V287.73ZM1003.11 238.516H949.214V190.858H1003.11V238.516ZM1003.11 190.469H949.214V144.951H1003.11V190.469ZM1056.14 190.469H1003.54V144.951H1056.14V190.469ZM1056.57 190.469V144.951H1108.11V190.469H1056.57ZM1108.11 238.905V287.73H1056.57V238.905H1108.11ZM1056.14 238.905V287.73H1003.54V238.905H1056.14ZM1108.11 190.858V238.516H1056.57V190.858H1108.11ZM1056.14 190.858V238.516H1003.54V190.858H1056.14ZM949.214 47.6897V95.3476H1003.11V47.6897H949.214ZM1003.54 47.6897V95.3476H1056.14V47.6897H1003.54ZM1056.57 47.6897V95.3476H1108.11V47.6897H1056.57ZM1108.11 144.562V95.7367H1056.57V144.562H1108.11ZM1056.14 144.562V95.7367H1003.54V144.562H1056.14ZM1003.11 144.562V95.7367H949.214V144.562H1003.11ZM948.784 333.637V288.119H897.251V333.637H948.784ZM896.822 333.637V288.119H844.216V333.637H896.822ZM844.216 334.026V381.684H896.822V334.026H844.216ZM897.251 334.026V381.684H948.784V334.026H897.251ZM844.216 382.073V430.898H896.822V382.073H844.216ZM897.251 382.073V430.898H948.784V382.073H897.251ZM896.822 287.73H844.216V238.905H896.822V287.73ZM896.822 238.516H844.216V190.858H896.822V238.516ZM896.822 190.469H844.216V144.951H896.822V190.469ZM948.784 190.469H897.251V144.951H948.784V190.469ZM897.251 238.516V190.858H948.784V238.516H897.251ZM897.251 287.73V238.905H948.784V287.73H897.251ZM844.216 47.6897V95.3476H896.822V47.6897H844.216ZM897.251 47.6897V95.3476H948.784V47.6897H897.251ZM844.216 95.7367V144.562H896.822V95.7367H844.216ZM897.251 95.7367V144.562H948.784V95.7367H897.251ZM843.786 333.637V288.119H789.892V333.637H843.786ZM789.892 334.026H843.786V381.684H789.892V334.026ZM789.892 382.073V430.898H843.786V382.073H789.892ZM789.892 238.516V190.858H843.786V238.516H789.892ZM789.892 190.469H843.786V144.951H789.892V190.469ZM843.786 238.905V287.73H789.892V238.905H843.786ZM789.892 144.562H843.786V95.7367H789.892V144.562ZM789.892 95.3476H843.786V47.6897H789.892V95.3476Z" fill="url(#paint3_linear_1120_113)" fill-opacity="0.9"/>
<path fill-rule="evenodd" clip-rule="evenodd" d="M789.462 585.156V630.674H739.433V631.064H789.462V678.721H739.433V679.11H789.462V727.935H739.433V728.325H789.462V773.843H739.433V774.232H789.462V821.89H739.433V822.279H789.462V871.104H739.433V871.493H789.462V917.594H789.892V871.493H843.786V917.594H844.216V871.493H896.822V917.594H897.251V871.493H948.784V917.594H949.214V871.493H1003.11V917.594H1003.54V871.493H1056.14V917.594H1056.57V871.493H1108.11V917.594H1108.54V871.493H1162.43V917.594H1162.86V871.493H1215.47V917.594H1215.9V871.493H1267.43V917.594H1267.86V871.493H1321.75V917.594H1322.18V871.493H1374.79V917.594H1375.22V871.493H1426.75V917.594H1427.18V871.493H1481.07V917.594H1481.5V871.493H1534.11V917.594H1534.54V871.493H1585V871.104H1534.54V822.279H1585V821.89H1534.54V774.232H1585V773.843H1534.54V728.325H1585V727.935H1534.54V679.11H1585V678.721H1534.54V631.064H1585V630.674H1534.54V585.156H1585V584.767H1534.54V535.942H1585V535.553H1534.54V487.895H1585V487.506H1534.54V441.405H1534.11V487.506H1481.5V441.405H1481.07V487.506H1427.18V441.405H1426.75V487.506H1375.22V441.405H1374.79V487.506H1322.18V441.405H1321.75V487.506H1267.86V441.405H1267.43V487.506H1215.9V441.405H1215.47V487.506H1162.86V441.405H1162.43V487.506H1108.54V441.405H1108.11V487.506H1056.57V441.405H1056.14V487.506H1003.54V441.405H1003.11V487.506H949.214V441.405H948.784V487.506H897.251V441.405H896.822V487.506H844.216V441.405H843.786V487.506H789.892V441.405H789.462V487.506H739.433V487.895H789.462V535.553H739.433V535.942H789.462V584.767H739.433V585.156H789.462ZM1534.11 773.843V728.325H1481.5V773.843H1534.11ZM1481.07 773.843V728.325H1427.18V773.843H1481.07ZM1426.75 773.843V728.325H1375.22V773.843H1426.75ZM1374.79 773.843V728.325H1322.18V773.843H1374.79ZM1321.75 773.843V728.325H1267.86V773.843H1321.75ZM1267.43 773.843V728.325H1215.9V773.843H1267.43ZM1215.9 774.232V821.89H1267.43V774.232H1215.9ZM1267.86 774.232V821.89H1321.75V774.232H1267.86ZM1322.18 774.232V821.89H1374.79V774.232H1322.18ZM1375.22 774.232V821.89H1426.75V774.232H1375.22ZM1427.18 774.232V821.89H1481.07V774.232H1427.18ZM1481.5 821.89V774.232H1534.11V821.89H1481.5ZM1481.07 822.279H1427.18V871.104H1481.07V822.279ZM1481.5 871.104V822.279H1534.11V871.104H1481.5ZM1426.75 871.104V822.279H1375.22V871.104H1426.75ZM1374.79 871.104V822.279H1322.18V871.104H1374.79ZM1321.75 871.104V822.279H1267.86V871.104H1321.75ZM1267.43 871.104V822.279H1215.9V871.104H1267.43ZM1267.43 727.935H1215.9V679.11H1267.43V727.935ZM1267.43 678.721H1215.9V631.064H1267.43V678.721ZM1267.43 630.674H1215.9V585.156H1267.43V630.674ZM1321.75 630.674H1267.86V585.156H1321.75V630.674ZM1322.18 630.674V585.156H1374.79V630.674H1322.18ZM1426.75 630.674H1375.22V585.156H1426.75V630.674ZM1427.18 630.674V585.156H1481.07V630.674H1427.18ZM1481.07 631.064V678.721H1427.18V631.064H1481.07ZM1481.5 631.064V678.721H1534.11V631.064H1481.5ZM1481.07 679.11V727.935H1427.18V679.11H1481.07ZM1481.5 679.11V727.935H1534.11V679.11H1481.5ZM1426.75 679.11V727.935H1375.22V679.11H1426.75ZM1374.79 679.11V727.935H1322.18V679.11H1374.79ZM1321.75 679.11V727.935H1267.86V679.11H1321.75ZM1481.5 630.674H1534.11V585.156H1481.5V630.674ZM1426.75 631.064V678.721H1375.22V631.064H1426.75ZM1374.79 631.064V678.721H1322.18V631.064H1374.79ZM1321.75 631.064V678.721H1267.86V631.064H1321.75ZM1215.9 487.895V535.553H1267.43V487.895H1215.9ZM1267.86 487.895V535.553H1321.75V487.895H1267.86ZM1322.18 487.895V535.553H1374.79V487.895H1322.18ZM1375.22 487.895V535.553H1426.75V487.895H1375.22ZM1427.18 487.895V535.553H1481.07V487.895H1427.18ZM1481.5 487.895V535.553H1534.11V487.895H1481.5ZM1534.11 535.942H1481.5V584.767H1534.11V535.942ZM1481.07 584.767V535.942H1427.18V584.767H1481.07ZM1426.75 584.767V535.942H1375.22V584.767H1426.75ZM1374.79 584.767V535.942H1322.18V584.767H1374.79ZM1321.75 584.767V535.942H1267.86V584.767H1321.75ZM1267.43 584.767V535.942H1215.9V584.767H1267.43ZM1215.47 773.843V728.325H1162.86V773.843H1215.47ZM1162.43 773.843V728.325H1108.54V773.843H1162.43ZM1108.54 774.232V821.89H1162.43V774.232H1108.54ZM1162.86 774.232V821.89H1215.47V774.232H1162.86ZM1215.47 871.104V822.279H1162.86V871.104H1215.47ZM1162.43 871.104V822.279H1108.54V871.104H1162.43ZM1162.43 727.935H1108.54V679.11H1162.43V727.935ZM1162.43 678.721H1108.54V631.064H1162.43V678.721ZM1162.43 630.674H1108.54V585.156H1162.43V630.674ZM1162.86 630.674V585.156H1215.47V630.674H1162.86ZM1215.47 679.11V727.935H1162.86V679.11H1215.47ZM1215.47 631.064V678.721H1162.86V631.064H1215.47ZM1108.54 487.895V535.553H1162.43V487.895H1108.54ZM1162.86 487.895V535.553H1215.47V487.895H1162.86ZM1215.47 584.767V535.942H1162.86V584.767H1215.47ZM1162.43 584.767V535.942H1108.54V584.767H1162.43ZM1108.11 773.843V728.325H1056.57V773.843H1108.11ZM1056.14 773.843V728.325H1003.54V773.843H1056.14ZM1003.11 773.843V728.325H949.214V773.843H1003.11ZM949.214 774.232V821.89H1003.11V774.232H949.214ZM1003.54 774.232V821.89H1056.14V774.232H1003.54ZM1056.57 774.232V821.89H1108.11V774.232H1056.57ZM1108.11 871.104V822.279H1056.57V871.104H1108.11ZM1056.14 871.104V822.279H1003.54V871.104H1056.14ZM1003.11 871.104V822.279H949.214V871.104H1003.11ZM1003.11 727.935H949.214V679.11H1003.11V727.935ZM1003.11 678.721H949.214V631.064H1003.11V678.721ZM1003.11 630.674H949.214V585.156H1003.11V630.674ZM1056.14 630.674H1003.54V585.156H1056.14V630.674ZM1056.57 630.674V585.156H1108.11V630.674H1056.57ZM1108.11 679.11V727.935H1056.57V679.11H1108.11ZM1056.14 679.11V727.935H1003.54V679.11H1056.14ZM1108.11 631.064V678.721H1056.57V631.064H1108.11ZM1056.14 631.064V678.721H1003.54V631.064H1056.14ZM949.214 487.895V535.553H1003.11V487.895H949.214ZM1003.54 487.895V535.553H1056.14V487.895H1003.54ZM1056.57 487.895V535.553H1108.11V487.895H1056.57ZM1108.11 584.767V535.942H1056.57V584.767H1108.11ZM1056.14 584.767V535.942H1003.54V584.767H1056.14ZM1003.11 584.767V535.942H949.214V584.767H1003.11ZM948.784 773.843V728.325H897.251V773.843H948.784ZM896.822 773.843V728.325H844.216V773.843H896.822ZM844.216 774.232V821.89H896.822V774.232H844.216ZM897.251 774.232V821.89H948.784V774.232H897.251ZM844.216 822.279V871.104H896.822V822.279H844.216ZM897.251 822.279V871.104H948.784V822.279H897.251ZM896.822 727.935H844.216V679.11H896.822V727.935ZM896.822 678.721H844.216V631.064H896.822V678.721ZM896.822 630.674H844.216V585.156H896.822V630.674ZM948.784 630.674H897.251V585.156H948.784V630.674ZM897.251 678.721V631.064H948.784V678.721H897.251ZM897.251 727.935V679.11H948.784V727.935H897.251ZM844.216 487.895V535.553H896.822V487.895H844.216ZM897.251 487.895V535.553H948.784V487.895H897.251ZM844.216 535.942V584.767H896.822V535.942H844.216ZM897.251 535.942V584.767H948.784V535.942H897.251ZM843.786 773.843V728.325H789.892V773.843H843.786ZM789.892 774.232H843.786V821.89H789.892V774.232ZM789.892 822.279V871.104H843.786V822.279H789.892ZM789.892 678.721V631.064H843.786V678.721H789.892ZM789.892 630.674H843.786V585.156H789.892V630.674ZM843.786 679.11V727.935H789.892V679.11H843.786ZM789.892 584.767H843.786V535.942H789.892V584.767ZM789.892 535.553H816.839H843.786V487.895H789.892V535.553Z" fill="url(#paint4_linear_1120_113)" fill-opacity="0.9"/>
<path fill-rule="evenodd" clip-rule="evenodd" d="M790.465 1026.56V1072.08H740.436V1072.47H790.465V1120.13H740.436V1120.52H790.465V1169.34H740.436V1169.73H790.465V1215.25H740.436V1215.64H790.465V1263.29H740.436V1263.68H790.465V1312.51H740.436V1312.9H790.465V1359H790.895V1312.9H844.789V1359H845.219V1312.9H897.825V1359H898.254V1312.9H949.787V1359H950.216V1312.9H1004.11V1359H1004.54V1312.9H1057.15V1359H1057.58V1312.9H1109.11V1359H1109.54V1312.9H1163.43V1359H1163.86V1312.9H1216.47V1359H1216.9V1312.9H1268.43V1359H1268.86V1312.9H1322.76V1359H1323.18V1312.9H1375.79V1359H1376.22V1312.9H1427.75V1359H1428.18V1312.9H1482.08V1359H1482.51V1312.9H1535.11V1359H1535.54V1312.9H1586V1312.51H1535.54V1263.68H1586V1263.29H1535.54V1215.64H1586V1215.25H1535.54V1169.73H1586V1169.34H1535.54V1120.52H1586V1120.13H1535.54V1072.47H1586V1072.08H1535.54V1026.56H1586V1026.17H1535.54V977.347H1586V976.958H1535.54V929.3H1586V928.911H1535.54V882.81H1535.11V928.911H1482.51V882.81H1482.08V928.911H1428.18V882.81H1427.75V928.911H1376.22V882.81H1375.79V928.911H1323.18V882.81H1322.76V928.911H1268.86V882.81H1268.43V928.911H1216.9V882.81H1216.47V928.911H1163.86V882.81H1163.43V928.911H1109.54V882.81H1109.11V928.911H1057.58V882.81H1057.15V928.911H1004.54V882.81H1004.11V928.911H950.216V882.81H949.787V928.911H898.254V882.81H897.825V928.911H845.219V882.81H844.789V928.911H790.895V882.81H790.465V928.911H740.436V929.3H790.465V976.958H740.436V977.347H790.465V1026.17H740.436V1026.56H790.465ZM1535.11 1215.25V1169.73H1482.51V1215.25H1535.11ZM1482.08 1215.25V1169.73H1428.18V1215.25H1482.08ZM1427.75 1215.25V1169.73H1376.22V1215.25H1427.75ZM1375.79 1215.25V1169.73H1323.18V1215.25H1375.79ZM1322.76 1215.25V1169.73H1268.86V1215.25H1322.76ZM1268.43 1215.25V1169.73H1216.9V1215.25H1268.43ZM1216.9 1215.64V1263.29H1268.43V1215.64H1216.9ZM1268.86 1215.64V1263.29H1322.76V1215.64H1268.86ZM1323.18 1215.64V1263.29H1375.79V1215.64H1323.18ZM1376.22 1215.64V1263.29H1427.75V1215.64H1376.22ZM1428.18 1215.64V1263.29H1482.08V1215.64H1428.18ZM1482.51 1263.29V1215.64H1535.11V1263.29H1482.51ZM1482.08 1263.68H1428.18V1312.51H1482.08V1263.68ZM1482.51 1312.51V1263.68H1535.11V1312.51H1482.51ZM1427.75 1312.51V1263.68H1376.22V1312.51H1427.75ZM1375.79 1312.51V1263.68H1323.18V1312.51H1375.79ZM1322.76 1312.51V1263.68H1268.86V1312.51H1322.76ZM1268.43 1312.51V1263.68H1216.9V1312.51H1268.43ZM1268.43 1169.34H1216.9V1120.52H1268.43V1169.34ZM1268.43 1120.13H1216.9V1072.47H1268.43V1120.13ZM1268.43 1072.08H1216.9V1026.56H1268.43V1072.08ZM1322.76 1072.08H1268.86V1026.56H1322.76V1072.08ZM1323.18 1072.08V1026.56H1375.79V1072.08H1323.18ZM1427.75 1072.08H1376.22V1026.56H1427.75V1072.08ZM1428.18 1072.08V1026.56H1482.08V1072.08H1428.18ZM1482.08 1072.47V1120.13H1428.18V1072.47H1482.08ZM1482.51 1072.47V1120.13H1535.11V1072.47H1482.51ZM1482.08 1120.52V1169.34H1428.18V1120.52H1482.08ZM1482.51 1120.52V1169.34H1535.11V1120.52H1482.51ZM1427.75 1120.52V1169.34H1376.22V1120.52H1427.75ZM1375.79 1120.52V1169.34H1323.18V1120.52H1375.79ZM1322.76 1120.52V1169.34H1268.86V1120.52H1322.76ZM1482.51 1072.08H1535.11V1026.56H1482.51V1072.08ZM1427.75 1072.47V1120.13H1376.22V1072.47H1427.75ZM1375.79 1072.47V1120.13H1323.18V1072.47H1375.79ZM1322.76 1072.47V1120.13H1268.86V1072.47H1322.76ZM1216.9 929.3V976.958H1268.43V929.3H1216.9ZM1268.86 929.3V976.958H1322.76V929.3H1268.86ZM1323.18 929.3V976.958H1375.79V929.3H1323.18ZM1376.22 929.3V976.958H1427.75V929.3H1376.22ZM1428.18 929.3V976.958H1482.08V929.3H1428.18ZM1482.51 929.3V976.958H1535.11V929.3H1482.51ZM1535.11 977.347H1482.51V1026.17H1535.11V977.347ZM1482.08 1026.17V977.347H1428.18V1026.17H1482.08ZM1427.75 1026.17V977.347H1376.22V1026.17H1427.75ZM1375.79 1026.17V977.347H1323.18V1026.17H1375.79ZM1322.76 1026.17V977.347H1268.86V1026.17H1322.76ZM1268.43 1026.17V977.347H1216.9V1026.17H1268.43ZM1216.47 1215.25V1169.73H1163.86V1215.25H1216.47ZM1163.43 1215.25V1169.73H1109.54V1215.25H1163.43ZM1109.54 1215.64V1263.29H1163.43V1215.64H1109.54ZM1163.86 1215.64V1263.29H1216.47V1215.64H1163.86ZM1216.47 1312.51V1263.68H1163.86V1312.51H1216.47ZM1163.43 1312.51V1263.68H1109.54V1312.51H1163.43ZM1163.43 1169.34H1109.54V1120.52H1163.43V1169.34ZM1163.43 1120.13H1109.54V1072.47H1163.43V1120.13ZM1163.43 1072.08H1109.54V1026.56H1163.43V1072.08ZM1163.86 1072.08V1026.56H1216.47V1072.08H1163.86ZM1216.47 1120.52V1169.34H1163.86V1120.52H1216.47ZM1216.47 1072.47V1120.13H1163.86V1072.47H1216.47ZM1109.54 929.3V976.958H1163.43V929.3H1109.54ZM1163.86 929.3V976.958H1216.47V929.3H1163.86ZM1216.47 1026.17V977.347H1163.86V1026.17H1216.47ZM1163.43 1026.17V977.347H1109.54V1026.17H1163.43ZM1109.11 1215.25V1169.73H1057.58V1215.25H1109.11ZM1057.15 1215.25V1169.73H1004.54V1215.25H1057.15ZM1004.11 1215.25V1169.73H950.216V1215.25H1004.11ZM950.216 1215.64V1263.29H1004.11V1215.64H950.216ZM1004.54 1215.64V1263.29H1057.15V1215.64H1004.54ZM1057.58 1215.64V1263.29H1109.11V1215.64H1057.58ZM1109.11 1312.51V1263.68H1057.58V1312.51H1109.11ZM1057.15 1312.51V1263.68H1004.54V1312.51H1057.15ZM1004.11 1312.51V1263.68H950.216V1312.51H1004.11ZM1004.11 1169.34H950.216V1120.52H1004.11V1169.34ZM1004.11 1120.13H950.216V1072.47H1004.11V1120.13ZM1004.11 1072.08H950.216V1026.56H1004.11V1072.08ZM1057.15 1072.08H1004.54V1026.56H1057.15V1072.08ZM1057.58 1072.08V1026.56H1109.11V1072.08H1057.58ZM1109.11 1120.52V1169.34H1057.58V1120.52H1109.11ZM1057.15 1120.52V1169.34H1004.54V1120.52H1057.15ZM1109.11 1072.47V1120.13H1057.58V1072.47H1109.11ZM1057.15 1072.47V1120.13H1004.54V1072.47H1057.15ZM950.216 929.3V976.958H1004.11V929.3H950.216ZM1004.54 929.3V976.958H1057.15V929.3H1004.54ZM1057.58 929.3V976.958H1109.11V929.3H1057.58ZM1109.11 1026.17V977.347H1057.58V1026.17H1109.11ZM1057.15 1026.17V977.347H1004.54V1026.17H1057.15ZM1004.11 1026.17V977.347H950.216V1026.17H1004.11ZM949.787 1215.25V1169.73H898.254V1215.25H949.787ZM897.825 1215.25V1169.73H845.219V1215.25H897.825ZM845.219 1215.64V1263.29H897.825V1215.64H845.219ZM898.254 1215.64V1263.29H949.787V1215.64H898.254ZM845.219 1263.68V1312.51H897.825V1263.68H845.219ZM898.254 1263.68V1312.51H949.787V1263.68H898.254ZM897.825 1169.34H845.219V1120.52H897.825V1169.34ZM897.825 1120.13H845.219V1072.47H897.825V1120.13ZM897.825 1072.08H845.219V1026.56H897.825V1072.08ZM949.787 1072.08H898.254V1026.56H949.787V1072.08ZM898.254 1120.13V1072.47H949.787V1120.13H898.254ZM898.254 1169.34V1120.52H949.787V1169.34H898.254ZM845.219 929.3V976.958H897.825V929.3H845.219ZM898.254 929.3V976.958H949.787V929.3H898.254ZM845.219 977.347V1026.17H897.825V977.347H845.219ZM898.254 977.347V1026.17H949.787V977.347H898.254ZM844.789 1215.25V1169.73H790.895V1215.25H844.789ZM790.895 1215.64H844.789V1263.29H790.895V1215.64ZM790.895 1263.68V1312.51H844.789V1263.68H790.895ZM790.895 1120.13V1072.47H844.789V1120.13H790.895ZM790.895 1072.08H844.789V1026.56H790.895V1072.08ZM844.789 1120.52V1169.34H790.895V1120.52H844.789ZM790.895 1026.17H844.789V977.347H790.895V1026.17ZM790.895 976.958H844.789V929.3H790.895V976.958Z" fill="url(#paint5_linear_1120_113)" fill-opacity="0.9"/>
<mask id="mask0_1120_113" style="mask-type:alpha" maskUnits="userSpaceOnUse" x="1341" y="167" width="160" height="161">
<circle cx="1420.77" cy="247.769" r="79.7696" fill="#C4C4C4"/>
</mask>
<g mask="url(#mask0_1120_113)">
<g filter="url(#filter3_i_1120_113)">
<circle cx="1420.77" cy="247.769" r="79.7696" fill="#AEE0DD"/>
</g>
<g filter="url(#filter4_f_1120_113)">
<circle cx="1410.61" cy="264.696" r="35.3356" fill="#FEFEFE"/>
</g>
<g filter="url(#filter5_f_1120_113)">
<circle cx="1366.07" cy="248.086" r="24.8619" fill="#FEFEFE"/>
</g>
<g filter="url(#filter6_f_1120_113)">
<circle cx="1369.25" cy="215.078" r="24.8619" fill="#F9F6D1"/>
</g>
<g filter="url(#filter7_f_1120_113)">
<circle cx="1460.44" cy="140.176" r="61.467" fill="#CCD3F9"/>
</g>
<g filter="url(#filter8_f_1120_113)">
<circle cx="1381.1" cy="337.589" r="47.7136" fill="#CCD3F9"/>
</g>
</g>
<mask id="mask1_1120_113" style="mask-type:alpha" maskUnits="userSpaceOnUse" x="-60" y="629" width="152" height="152">
<circle cx="16.2432" cy="705.243" r="75.3372" transform="rotate(9.97057 16.2432 705.243)" fill="#C4C4C4"/>
</mask>
<g mask="url(#mask1_1120_113)">
<g filter="url(#filter9_i_1120_113)">
<circle cx="16.2432" cy="705.243" r="75.3372" transform="rotate(9.97057 16.2432 705.243)" fill="#AEE0DD"/>
</g>
<g filter="url(#filter10_f_1120_113)">
<circle cx="4.0285" cy="719.328" r="33.3722" transform="rotate(9.97057 4.0285 719.328)" fill="#FEFEFE"/>
</g>
<g filter="url(#filter11_f_1120_113)">
<circle cx="-34.6857" cy="696.594" r="23.4804" transform="rotate(9.97057 -34.6857 696.594)" fill="#FEFEFE"/>
</g>
<g filter="url(#filter12_f_1120_113)">
<circle cx="-26.3361" cy="666.41" r="23.4804" transform="rotate(9.97057 -26.3361 666.41)" fill="#F9F6D1"/>
</g>
<g filter="url(#filter13_f_1120_113)">
<circle cx="70.7399" cy="611.65" r="58.0516" transform="rotate(9.97057 70.7399 611.65)" fill="#CCD3F9"/>
</g>
<g filter="url(#filter14_f_1120_113)">
<circle cx="-35.3471" cy="782.304" r="45.0624" transform="rotate(9.97057 -35.3471 782.304)" fill="#CCD3F9"/>
</g>
</g>
<defs>
<filter id="filter0_f_1120_113" x="-568.367" y="-1028.82" width="2322.61" height="2082.64" filterUnits="userSpaceOnUse" color-interpolation-filters="sRGB">
<feFlood flood-opacity="0" result="BackgroundImageFix"/>
<feBlend mode="normal" in="SourceGraphic" in2="BackgroundImageFix" result="shape"/>
<feGaussianBlur stdDeviation="400" result="effect1_foregroundBlur_1120_113"/>
</filter>
<filter id="filter1_f_1120_113" x="746.264" y="-213.922" width="1374.65" height="1604.97" filterUnits="userSpaceOnUse" color-interpolation-filters="sRGB">
<feFlood flood-opacity="0" result="BackgroundImageFix"/>
<feBlend mode="normal" in="SourceGraphic" in2="BackgroundImageFix" result="shape"/>
<feGaussianBlur stdDeviation="250" result="effect1_foregroundBlur_1120_113"/>
</filter>
<filter id="filter2_f_1120_113" x="-584.632" y="107.002" width="1270.64" height="1417.7" filterUnits="userSpaceOnUse" color-interpolation-filters="sRGB">
<feFlood flood-opacity="0" result="BackgroundImageFix"/>
<feBlend mode="normal" in="SourceGraphic" in2="BackgroundImageFix" result="shape"/>
<feGaussianBlur stdDeviation="250" result="effect1_foregroundBlur_1120_113"/>
</filter>
<filter id="filter3_i_1120_113" x="1341" y="168" width="159.539" height="159.539" filterUnits="userSpaceOnUse" color-interpolation-filters="sRGB">
<feFlood flood-opacity="0" result="BackgroundImageFix"/>
<feBlend mode="normal" in="SourceGraphic" in2="BackgroundImageFix" result="shape"/>
<feColorMatrix in="SourceAlpha" type="matrix" values="0 0 0 0 0 0 0 0 0 0 0 0 0 0 0 0 0 0 127 0" result="hardAlpha"/>
<feMorphology radius="7.59367" operator="erode" in="SourceAlpha" result="effect1_innerShadow_1120_113"/>
<feOffset/>
<feGaussianBlur stdDeviation="3.99667"/>
<feComposite in2="hardAlpha" operator="arithmetic" k2="-1" k3="1"/>
<feColorMatrix type="matrix" values="0 0 0 0 0 0 0 0 0 0 0 0 0 0 0 0 0 0 0.25 0"/>
<feBlend mode="overlay" in2="shape" result="effect1_innerShadow_1120_113"/>
</filter>
<filter id="filter4_f_1120_113" x="1348.9" y="202.983" width="123.428" height="123.427" filterUnits="userSpaceOnUse" color-interpolation-filters="sRGB">
<feFlood flood-opacity="0" result="BackgroundImageFix"/>
<feBlend mode="normal" in="SourceGraphic" in2="BackgroundImageFix" result="shape"/>
<feGaussianBlur stdDeviation="13.189" result="effect1_foregroundBlur_1120_113"/>
</filter>
<filter id="filter5_f_1120_113" x="1320.03" y="202.042" width="92.0893" height="92.0883" filterUnits="userSpaceOnUse" color-interpolation-filters="sRGB">
<feFlood flood-opacity="0" result="BackgroundImageFix"/>
<feBlend mode="normal" in="SourceGraphic" in2="BackgroundImageFix" result="shape"/>
<feGaussianBlur stdDeviation="10.5912" result="effect1_foregroundBlur_1120_113"/>
</filter>
<filter id="filter6_f_1120_113" x="1323.2" y="169.034" width="92.0893" height="92.0883" filterUnits="userSpaceOnUse" color-interpolation-filters="sRGB">
<feFlood flood-opacity="0" result="BackgroundImageFix"/>
<feBlend mode="normal" in="SourceGraphic" in2="BackgroundImageFix" result="shape"/>
<feGaussianBlur stdDeviation="10.5912" result="effect1_foregroundBlur_1120_113"/>
</filter>
<filter id="filter7_f_1120_113" x="1388.98" y="68.7168" width="142.917" height="142.917" filterUnits="userSpaceOnUse" color-interpolation-filters="sRGB">
<feFlood flood-opacity="0" result="BackgroundImageFix"/>
<feBlend mode="normal" in="SourceGraphic" in2="BackgroundImageFix" result="shape"/>
<feGaussianBlur stdDeviation="4.99584" result="effect1_foregroundBlur_1120_113"/>
</filter>
<filter id="filter8_f_1120_113" x="1323.19" y="279.684" width="115.811" height="115.81" filterUnits="userSpaceOnUse" color-interpolation-filters="sRGB">
<feFlood flood-opacity="0" result="BackgroundImageFix"/>
<feBlend mode="normal" in="SourceGraphic" in2="BackgroundImageFix" result="shape"/>
<feGaussianBlur stdDeviation="5.09575" result="effect1_foregroundBlur_1120_113"/>
</filter>
<filter id="filter9_i_1120_113" x="-59.1064" y="629.893" width="150.699" height="150.7" filterUnits="userSpaceOnUse" color-interpolation-filters="sRGB">
<feFlood flood-opacity="0" result="BackgroundImageFix"/>
<feBlend mode="normal" in="SourceGraphic" in2="BackgroundImageFix" result="shape"/>
<feColorMatrix in="SourceAlpha" type="matrix" values="0 0 0 0 0 0 0 0 0 0 0 0 0 0 0 0 0 0 127 0" result="hardAlpha"/>
<feMorphology radius="7.59367" operator="erode" in="SourceAlpha" result="effect1_innerShadow_1120_113"/>
<feOffset/>
<feGaussianBlur stdDeviation="3.99667"/>
<feComposite in2="hardAlpha" operator="arithmetic" k2="-1" k3="1"/>
<feColorMatrix type="matrix" values="0 0 0 0 0 0 0 0 0 0 0 0 0 0 0 0 0 0 0.25 0"/>
<feBlend mode="overlay" in2="shape" result="effect1_innerShadow_1120_113"/>
</filter>
<filter id="filter10_f_1120_113" x="-55.7276" y="659.572" width="119.512" height="119.511" filterUnits="userSpaceOnUse" color-interpolation-filters="sRGB">
<feFlood flood-opacity="0" result="BackgroundImageFix"/>
<feBlend mode="normal" in="SourceGraphic" in2="BackgroundImageFix" result="shape"/>
<feGaussianBlur stdDeviation="13.189" result="effect1_foregroundBlur_1120_113"/>
</filter>
<filter id="filter11_f_1120_113" x="-79.3523" y="651.928" width="89.3334" height="89.3332" filterUnits="userSpaceOnUse" color-interpolation-filters="sRGB">
<feFlood flood-opacity="0" result="BackgroundImageFix"/>
<feBlend mode="normal" in="SourceGraphic" in2="BackgroundImageFix" result="shape"/>
<feGaussianBlur stdDeviation="10.5912" result="effect1_foregroundBlur_1120_113"/>
</filter>
<filter id="filter12_f_1120_113" x="-71.0027" y="621.744" width="89.3334" height="89.3332" filterUnits="userSpaceOnUse" color-interpolation-filters="sRGB">
<feFlood flood-opacity="0" result="BackgroundImageFix"/>
<feBlend mode="normal" in="SourceGraphic" in2="BackgroundImageFix" result="shape"/>
<feGaussianBlur stdDeviation="10.5912" result="effect1_foregroundBlur_1120_113"/>
</filter>
<filter id="filter13_f_1120_113" x="2.68704" y="543.597" width="136.105" height="136.106" filterUnits="userSpaceOnUse" color-interpolation-filters="sRGB">
<feFlood flood-opacity="0" result="BackgroundImageFix"/>
<feBlend mode="normal" in="SourceGraphic" in2="BackgroundImageFix" result="shape"/>
<feGaussianBlur stdDeviation="4.99584" result="effect1_foregroundBlur_1120_113"/>
</filter>
<filter id="filter14_f_1120_113" x="-90.6085" y="727.042" width="110.523" height="110.523" filterUnits="userSpaceOnUse" color-interpolation-filters="sRGB">
<feFlood flood-opacity="0" result="BackgroundImageFix"/>
<feBlend mode="normal" in="SourceGraphic" in2="BackgroundImageFix" result="shape"/>
<feGaussianBlur stdDeviation="5.09575" result="effect1_foregroundBlur_1120_113"/>
</filter>
<linearGradient id="paint0_linear_1120_113" x1="762.001" y1="-0.000488229" x2="762.718" y2="1260.64" gradientUnits="userSpaceOnUse">
<stop offset="0.0272206" stop-color="white" stop-opacity="0"/>
<stop offset="0.291667" stop-color="white"/>
<stop offset="0.75938" stop-color="white"/>
<stop offset="1" stop-color="white" stop-opacity="0"/>
</linearGradient>
<linearGradient id="paint1_linear_1120_113" x1="762.001" y1="-0.000488229" x2="762.718" y2="1260.64" gradientUnits="userSpaceOnUse">
<stop offset="0.0272206" stop-color="white" stop-opacity="0"/>
<stop offset="0.291667" stop-color="white"/>
<stop offset="0.75938" stop-color="white"/>
<stop offset="1" stop-color="white" stop-opacity="0"/>
</linearGradient>
<linearGradient id="paint2_linear_1120_113" x1="762.001" y1="-0.000488229" x2="762.718" y2="1260.64" gradientUnits="userSpaceOnUse">
<stop offset="0.0272206" stop-color="white" stop-opacity="0"/>
<stop offset="0.291667" stop-color="white"/>
<stop offset="0.75938" stop-color="white"/>
<stop offset="1" stop-color="white" stop-opacity="0"/>
</linearGradient>
<linearGradient id="paint3_linear_1120_113" x1="762.001" y1="-0.000488229" x2="762.718" y2="1260.64" gradientUnits="userSpaceOnUse">
<stop offset="0.0272206" stop-color="white" stop-opacity="0"/>
<stop offset="0.291667" stop-color="white"/>
<stop offset="0.75938" stop-color="white"/>
<stop offset="1" stop-color="white" stop-opacity="0"/>
</linearGradient>
<linearGradient id="paint4_linear_1120_113" x1="762.001" y1="-0.000488229" x2="762.718" y2="1260.64" gradientUnits="userSpaceOnUse">
<stop offset="0.0272206" stop-color="white" stop-opacity="0"/>
<stop offset="0.291667" stop-color="white"/>
<stop offset="0.75938" stop-color="white"/>
<stop offset="1" stop-color="white" stop-opacity="0"/>
</linearGradient>
<linearGradient id="paint5_linear_1120_113" x1="762.001" y1="-0.000488229" x2="762.718" y2="1260.64" gradientUnits="userSpaceOnUse">
<stop offset="0.0272206" stop-color="white" stop-opacity="0"/>
<stop offset="0.291667" stop-color="white"/>
<stop offset="0.75938" stop-color="white"/>
<stop offset="1" stop-color="white" stop-opacity="0"/>
</linearGradient>
</defs>
</svg>
