<svg width="450" height="131" viewBox="0 0 450 131" fill="none" xmlns="http://www.w3.org/2000/svg">
<rect x="0.5" y="0.5" width="449" height="130" rx="15.5" fill="#F9F9F9" stroke="#001167"/>
<path fill-rule="evenodd" clip-rule="evenodd" d="M139.984 29V65.3132H175.949C175.317 84.1794 159.457 99.2837 139.984 99.2837C120.111 99.2837 104 83.5501 104 64.1417C104 44.7335 120.111 29 139.984 29Z" fill="#5994FF"/>
<path fill-rule="evenodd" clip-rule="evenodd" d="M139.984 36.9656V65.2898H168.036C167.543 80.0055 155.172 91.787 139.984 91.787C124.482 91.787 111.916 79.5146 111.916 64.3762C111.916 49.2377 124.482 36.9656 139.984 36.9656Z" fill="#276CEC"/>
<path d="M211.929 81.2279C208.319 81.2279 205.299 80.4701 202.87 78.9543C200.474 77.4057 198.77 75.3131 197.758 72.6771L204.742 68.723C206.159 71.9194 208.639 73.5174 212.182 73.5174C215.387 73.5174 216.99 72.5783 216.99 70.7001C216.99 69.6785 216.467 68.8877 215.421 68.3276C214.409 67.7345 212.486 67.0589 209.651 66.3012C208.167 65.9058 206.868 65.4609 205.754 64.9667C204.641 64.4724 203.544 63.8299 202.465 63.039C201.419 62.2151 200.609 61.1938 200.035 59.9746C199.495 58.7554 199.226 57.355 199.226 55.7734C199.226 52.5771 200.39 50.0235 202.718 48.1123C205.08 46.2012 207.88 45.2456 211.119 45.2456C214.021 45.2456 216.585 45.9211 218.812 47.2721C221.039 48.5901 222.794 50.5177 224.076 53.0549L217.243 56.9596C216.602 55.6416 215.809 54.653 214.864 53.994C213.92 53.3021 212.671 52.9561 211.119 52.9561C209.905 52.9561 208.96 53.2197 208.285 53.7469C207.644 54.2412 207.323 54.8507 207.323 55.5757C207.323 56.4324 207.728 57.1738 208.538 57.7999C209.382 58.4259 211.102 59.1179 213.7 59.8758C215.117 60.3041 216.214 60.6501 216.99 60.9137C217.766 61.1773 218.745 61.622 219.926 62.2482C221.14 62.8413 222.051 63.4839 222.659 64.1758C223.3 64.8347 223.856 65.7244 224.329 66.8448C224.835 67.9322 225.088 69.1842 225.088 70.6012C225.088 73.8964 223.873 76.4993 221.444 78.4106C219.015 80.2888 215.843 81.2279 211.929 81.2279ZM242.969 62.9402H237.756V71.6886C237.756 72.6771 238.161 73.3033 238.971 73.5668C239.781 73.8303 241.114 73.9128 242.969 73.8139V80.5359C238.145 81.0302 234.804 80.5853 232.948 79.2014C231.093 77.7844 230.165 75.2804 230.165 71.6886V62.9402H226.116V55.8228H230.165V51.1273L237.756 48.9031V55.8228H242.969V62.9402ZM265.146 55.8228H272.737V80.5359H265.146V78.2129C263.357 80.223 260.844 81.2279 257.604 81.2279C254.264 81.2279 251.413 79.9759 249.051 77.4715C246.689 74.9344 245.508 71.8369 245.508 68.1794C245.508 64.5218 246.689 61.4409 249.051 58.9367C251.413 56.3995 254.264 55.1308 257.604 55.1308C260.844 55.1308 263.357 56.1358 265.146 58.1458V55.8228ZM254.77 72.5783C255.884 73.6657 257.335 74.2094 259.123 74.2094C260.911 74.2094 262.362 73.6657 263.475 72.5783C264.589 71.4909 265.146 70.0245 265.146 68.1794C265.146 66.3342 264.589 64.8678 263.475 63.7804C262.362 62.6931 260.911 62.1494 259.123 62.1494C257.335 62.1494 255.884 62.6931 254.77 63.7804C253.657 64.8678 253.1 66.3342 253.1 68.1794C253.1 70.0245 253.657 71.4909 254.77 72.5783ZM285.899 60.2217C286.371 58.6401 287.316 57.4374 288.733 56.6136C290.183 55.7569 291.769 55.3285 293.49 55.3285V63.731C291.634 63.4344 289.897 63.7474 288.277 64.6701C286.691 65.5598 285.899 67.125 285.899 69.3656V80.5359H278.307V55.8228H285.899V60.2217ZM312.609 62.9402H307.396V71.6886C307.396 72.6771 307.801 73.3033 308.611 73.5668C309.421 73.8303 310.754 73.9128 312.609 73.8139V80.5359C307.784 81.0302 304.444 80.5853 302.588 79.2014C300.733 77.7844 299.805 75.2804 299.805 71.6886V62.9402H295.756V55.8228H299.805V51.1273L307.396 48.9031V55.8228H312.609V62.9402Z" fill="#333333"/>
<path d="M356.301 80.5358H346.178L340.611 71.3426L335.044 80.5358H324.871L335.55 62.8907L325.276 45.9375H335.449L340.611 54.4882L345.774 45.9375H355.946L345.672 62.9401L356.301 80.5358Z" fill="url(#paint0_linear_1122_100)"/>
<path d="M141.785 49.6559C141.749 38.3605 151.095 29.1748 162.662 29.139L175.699 29.0986L175.744 43.0567C175.781 54.3521 166.434 63.5377 154.868 63.5735L141.831 63.6141L141.785 49.6559Z" fill="#00FFD1"/>
<g opacity="0.1">
<mask id="mask0_1122_100" style="mask-type:alpha" maskUnits="userSpaceOnUse" x="0" y="0" width="450" height="131">
<rect width="450" height="131" rx="16" fill="#AEBBFC"/>
</mask>
<g mask="url(#mask0_1122_100)">
<path d="M-24 -59.7928C7.5 -83.0839 90.5 -112.537 168.117 -66.8216C205.415 -44.8537 220.693 29.3727 168.117 72.8771C91.5 136.275 12.5 61.1042 28.5 9.67127C44.5 -41.7616 91.743 -52.764 228.126 -59.7928C364.508 -66.8216 516.361 46.5026 469.068 79.4666C413.606 118.125 319.048 146.381 295.408 138.034C271.768 129.687 157.207 49.594 295.408 -29.4808C405.969 -92.7406 564.536 -51.1532 630 -22.4519" stroke="#5994FF" stroke-width="15"/>
</g>
</g>
<defs>
<linearGradient id="paint0_linear_1122_100" x1="336.865" y1="47.8123" x2="306.532" y2="99.916" gradientUnits="userSpaceOnUse">
<stop stop-color="#00FFD1"/>
<stop offset="1" stop-color="#276CEC"/>
</linearGradient>
</defs>
</svg>
