<svg width="458" height="142" viewBox="0 0 458 142" fill="none" xmlns="http://www.w3.org/2000/svg">
<rect x="8" width="450" height="136" rx="16" fill="#5994FF"/>
<rect x="0.5" y="11.5" width="449" height="130" rx="15.5" fill="#F9F9F9" stroke="#001167"/>
<g opacity="0.1">
<mask id="mask0_1122_118" style="mask-type:alpha" maskUnits="userSpaceOnUse" x="0" y="11" width="450" height="131">
<rect y="11" width="450" height="131" rx="16" fill="#AEBBFC"/>
</mask>
<g mask="url(#mask0_1122_118)">
<path d="M-24 -48.7928C7.5 -72.0839 90.5 -101.537 168.117 -55.8216C205.415 -33.8537 220.693 40.3727 168.117 83.8771C91.5 147.275 12.5 72.1042 28.5 20.6713C44.5 -30.7616 91.743 -41.764 228.126 -48.7928C364.508 -55.8216 516.361 57.5026 469.068 90.4666C413.606 129.125 319.048 157.381 295.408 149.034C271.768 140.687 157.207 60.594 295.408 -18.4808C405.969 -81.7406 564.536 -40.1532 630 -11.4519" stroke="#5994FF" stroke-width="15"/>
</g>
</g>
<g clip-path="url(#clip0_1122_118)">
<path fill-rule="evenodd" clip-rule="evenodd" d="M112.365 48.5178V79.7669H142.715C142.181 96.002 128.797 109 112.365 109C95.5952 109 82 95.4605 82 78.759C82 62.0572 95.5952 48.5178 112.365 48.5178Z" fill="#5994FF"/>
<path fill-rule="evenodd" clip-rule="evenodd" d="M112.364 59.9099V79.5956H131.483C131.147 89.823 122.716 98.0111 112.364 98.0111C101.8 98.0111 93.2354 89.4818 93.2354 78.9606C93.2354 68.4392 101.8 59.9099 112.364 59.9099Z" fill="white"/>
<path fill-rule="evenodd" clip-rule="evenodd" d="M113.782 48.28V78.3558H142.66C142.67 78.0337 142.675 77.7102 142.675 77.3854C142.675 61.311 129.74 48.2801 113.782 48.28Z" fill="#00FFD1"/>
<path fill-rule="evenodd" clip-rule="evenodd" d="M118.229 43V72.7824H147.078C147.088 72.4636 147.094 72.1432 147.094 71.8217C147.094 55.9039 134.17 43 118.229 43Z" fill="#00A88A"/>
<path d="M171.578 62.8001C174.51 62.8001 176.987 63.7925 179.009 65.7774C181.03 67.7623 182.041 70.1725 182.041 73.0081C182.041 75.8438 181.03 78.2538 179.009 80.2388C176.987 82.2237 174.51 83.2161 171.578 83.2161H167.093V92.5734H160.26V62.8001H171.578ZM171.578 76.8361C172.631 76.8361 173.499 76.4674 174.183 75.7302C174.866 74.9931 175.208 74.0855 175.208 73.0081C175.208 71.9306 174.866 71.0232 174.183 70.286C173.499 69.5487 172.631 69.1801 171.578 69.1801H167.093V76.8361H171.578ZM191.131 68.3294C190.391 69.0667 189.494 69.4353 188.441 69.4353C187.387 69.4353 186.476 69.0667 185.707 68.3294C184.967 67.5638 184.597 66.6565 184.597 65.6073C184.597 64.5581 184.967 63.6649 185.707 62.9277C186.476 62.1621 187.387 61.7793 188.441 61.7793C189.494 61.7793 190.391 62.1621 191.131 62.9277C191.9 63.6649 192.284 64.5581 192.284 65.6073C192.284 66.6565 191.9 67.5638 191.131 68.3294ZM185.237 92.5734V71.3068H191.644V92.5734H185.237ZM208.845 77.4316H204.446V84.96C204.446 85.8106 204.788 86.3495 205.471 86.5762C206.155 86.803 207.28 86.874 208.845 86.7889V92.5734C204.774 92.9988 201.955 92.616 200.389 91.425C198.823 90.2056 198.04 88.0508 198.04 84.96V77.4316H194.623V71.3068H198.04V67.2661L204.446 65.3521V71.3068H208.845V77.4316ZM222.306 93.1689C219.06 93.1689 216.355 92.0915 214.191 89.9364C212.056 87.7812 210.988 85.116 210.988 81.9401C210.988 78.7642 212.056 76.0989 214.191 73.9438C216.355 71.7888 219.06 70.7113 222.306 70.7113C224.356 70.7113 226.235 71.2075 227.943 72.2C229.68 73.1923 231.018 74.5108 231.958 76.1556L226.363 79.3881C225.594 77.8003 224.213 77.0062 222.22 77.0062C220.825 77.0062 219.672 77.4741 218.761 78.4098C217.85 79.3171 217.394 80.494 217.394 81.9401C217.394 83.3862 217.85 84.5772 218.761 85.5129C219.672 86.4202 220.825 86.874 222.22 86.874C224.242 86.874 225.623 86.0799 226.363 84.4921L231.958 87.6821C231.018 89.355 229.694 90.6879 227.986 91.6802C226.277 92.6726 224.384 93.1689 222.306 93.1689ZM247.049 70.7113C249.327 70.7113 251.221 71.4911 252.73 73.0506C254.267 74.6103 255.036 76.7651 255.036 79.5157V92.5734H248.63V80.4514C248.63 79.2039 248.274 78.2538 247.562 77.6017C246.879 76.9212 245.996 76.5809 244.914 76.5809C243.69 76.5809 242.722 76.9496 242.01 77.6868C241.298 78.4239 240.942 79.5157 240.942 80.9618V92.5734H234.536V62.8001H240.942V73.3058C242.223 71.5761 244.259 70.7113 247.049 70.7113ZM280.32 93.1689C275.85 93.1689 272.134 91.6943 269.173 88.7454C266.24 85.7681 264.774 82.0818 264.774 77.6868C264.774 73.2917 266.24 69.6196 269.173 66.6706C272.134 63.6933 275.85 62.2046 280.32 62.2046C282.996 62.2046 285.473 62.8285 287.751 64.0761C290.029 65.2954 291.823 66.9684 293.133 69.095L287.239 72.4977C286.584 71.3351 285.644 70.4419 284.42 69.8181C283.196 69.1659 281.829 68.8398 280.32 68.8398C277.672 68.8398 275.551 69.648 273.956 71.2642C272.39 72.8805 271.607 75.0212 271.607 77.6868C271.607 80.3523 272.39 82.493 273.956 84.1093C275.551 85.7256 277.672 86.5337 280.32 86.5337C281.829 86.5337 283.196 86.2075 284.42 85.5554C285.673 84.9033 286.612 84.0101 287.239 82.8758L293.133 86.2785C291.851 88.4052 290.072 90.0924 287.794 91.34C285.516 92.5593 283.025 93.1689 280.32 93.1689ZM302.945 75.0922C303.343 73.7312 304.14 72.6963 305.336 71.9873C306.561 71.2501 307.899 70.8814 309.351 70.8814V78.1121C307.785 77.8569 306.319 78.1262 304.952 78.9202C303.614 79.6858 302.945 81.0328 302.945 82.9609V92.5734H296.538V71.3068H302.945V75.0922ZM327.223 71.3068H333.629V92.5734H327.223V90.5744C325.714 92.3041 323.593 93.1689 320.86 93.1689C318.041 93.1689 315.635 92.0915 313.642 89.9364C311.649 87.7531 310.652 85.0876 310.652 81.9401C310.652 78.7926 311.649 76.1415 313.642 73.9864C315.635 71.803 318.041 70.7113 320.86 70.7113C323.593 70.7113 325.714 71.5761 327.223 73.3058V71.3068ZM318.468 85.7256C319.407 86.6613 320.632 87.1292 322.141 87.1292C323.65 87.1292 324.874 86.6613 325.814 85.7256C326.753 84.7898 327.223 83.5279 327.223 81.9401C327.223 80.3523 326.753 79.0904 325.814 78.1546C324.874 77.2189 323.65 76.751 322.141 76.751C320.632 76.751 319.407 77.2189 318.468 78.1546C317.528 79.0904 317.058 80.3523 317.058 81.9401C317.058 83.5279 317.528 84.7898 318.468 85.7256ZM350.074 68.3294C347.426 68.1026 346.102 69.095 346.102 71.3068H350.074V77.4316H346.102V92.5734H339.696V77.4316H336.835V71.3068H339.696C339.696 68.2444 340.564 65.9192 342.301 64.3313C344.038 62.715 346.629 62.0061 350.074 62.2046V68.3294ZM365.566 77.4316H361.167V84.96C361.167 85.8106 361.508 86.3495 362.192 86.5762C362.875 86.803 364 86.874 365.566 86.7889V92.5734C361.494 92.9988 358.675 92.616 357.109 91.425C355.544 90.2056 354.76 88.0508 354.76 84.96V77.4316H351.344V71.3068H354.76V67.2661L361.167 65.3521V71.3068H365.566V77.4316Z" fill="#333333"/>
</g>
<defs>
<clipPath id="clip0_1122_118">
<rect width="286" height="66" fill="white" transform="translate(82 43)"/>
</clipPath>
</defs>
</svg>
