<svg width="450" height="131" viewBox="0 0 450 131" fill="none" xmlns="http://www.w3.org/2000/svg">
<rect x="0.5" y="0.5" width="449" height="130" rx="15.5" fill="#F9F9F9" stroke="#001167"/>
<g opacity="0.1">
<mask id="mask0_1122_138" style="mask-type:alpha" maskUnits="userSpaceOnUse" x="0" y="0" width="450" height="131">
<rect width="450" height="131" rx="16" fill="#AEBBFC"/>
</mask>
<g mask="url(#mask0_1122_138)">
<path d="M-24 -59.7928C7.5 -83.0839 90.5 -112.537 168.117 -66.8216C205.415 -44.8537 220.693 29.3727 168.117 72.8771C91.5 136.275 12.5 61.1042 28.5 9.67127C44.5 -41.7616 91.743 -52.764 228.126 -59.7928C364.508 -66.8216 516.361 46.5026 469.068 79.4666C413.606 118.125 319.048 146.381 295.408 138.034C271.768 129.687 157.207 49.594 295.408 -29.4808C405.969 -92.7406 564.536 -51.1532 630 -22.4519" stroke="#5994FF" stroke-width="15"/>
</g>
</g>
<g clip-path="url(#clip0_1122_138)">
<path fill-rule="evenodd" clip-rule="evenodd" d="M132.298 64.4332L104.827 36.2146C89.6658 50.971 89.3439 75.2285 104.108 90.3948C104.288 90.5793 104.469 90.7617 104.651 90.9418L132.298 64.4332ZM132.502 64.5422L158.146 91.2807C158.195 91.2331 158.245 91.1855 158.294 91.1373C173.149 76.6789 173.758 53.0994 159.889 37.8867L132.502 64.5422Z" fill="#5994FF"/>
<path fill-rule="evenodd" clip-rule="evenodd" d="M132.249 64.3998L110.735 42.2068C98.8058 53.6098 98.5517 72.3935 109.961 84.3267C110.2 84.5765 110.442 84.8215 110.687 85.0612L132.348 64.3851L152.263 85.2443C163.909 74.0673 164.534 55.7117 153.837 43.7638L132.249 64.3998Z" fill="#276CEC"/>
<path d="M356.764 82.5972H345.987L340.06 72.5715L334.133 82.5972H323.303L334.672 63.3545L323.734 44.8667H334.564L340.06 54.1915L345.556 44.8667H356.386L345.449 63.4084L356.764 82.5972Z" fill="url(#paint0_linear_1122_138)"/>
<path d="M210.304 82.6051L208.601 77.2621H195.948L194.245 82.6051H185.729L197.311 48.6038H207.238L218.82 82.6051H210.304ZM198.284 69.9762H206.265L202.274 57.4927L198.284 69.9762Z" fill="#333333"/>
<path d="M235.741 57.6384C238.336 57.6384 240.494 58.5289 242.213 60.31C243.965 62.0909 244.841 64.5521 244.841 67.6932V82.6051H237.542V68.7617C237.542 67.337 237.136 66.2522 236.325 65.5074C235.546 64.7302 234.541 64.3416 233.308 64.3416C231.913 64.3416 230.81 64.7626 229.999 65.6044C229.188 66.4465 228.782 67.6932 228.782 69.3446V82.6051H221.482V58.3185H228.782V60.6014C230.242 58.6261 232.562 57.6384 235.741 57.6384Z" fill="#333333"/>
<path d="M267.713 58.3185H274.818V81.3909C274.818 85.2119 273.569 88.0941 271.071 90.0369C268.573 92.0121 265.539 92.9999 261.97 92.9999C256.488 92.9999 252.643 91.0409 250.437 87.1226L256.666 83.528C257.769 85.5681 259.619 86.5883 262.214 86.5883C263.933 86.5883 265.28 86.1348 266.253 85.2281C267.226 84.3539 267.713 83.0748 267.713 81.3909V79.1565C266.026 81.2614 263.658 82.3138 260.608 82.3138C257.202 82.3138 254.346 81.1155 252.043 78.7192C249.772 76.2905 248.637 73.3762 248.637 69.9762C248.637 66.576 249.772 63.6778 252.043 61.2814C254.346 58.8528 257.202 57.6384 260.608 57.6384C263.658 57.6384 266.026 58.6908 267.713 60.7957V58.3185ZM257.591 74.0561C258.694 75.0925 260.105 75.6106 261.825 75.6106C263.544 75.6106 264.955 75.0925 266.058 74.0561C267.161 73.02 267.713 71.6598 267.713 69.9762C267.713 68.2923 267.161 66.9321 266.058 65.896C264.955 64.8596 263.544 64.3416 261.825 64.3416C260.105 64.3416 258.694 64.8596 257.591 65.896C256.488 66.9321 255.936 68.2923 255.936 69.9762C255.936 71.6598 256.488 73.02 257.591 74.0561Z" fill="#333333"/>
<path d="M286.695 73.3762C287.538 75.643 289.485 76.7764 292.534 76.7764C294.513 76.7764 296.07 76.1611 297.206 74.9306L303.046 78.2822C300.645 81.6176 297.109 83.2853 292.437 83.2853C288.349 83.2853 285.072 82.0708 282.607 79.6421C280.174 77.2134 278.957 74.1534 278.957 70.4618C278.957 66.8027 280.157 63.7586 282.558 61.33C284.991 58.8689 288.106 57.6384 291.902 57.6384C295.438 57.6384 298.374 58.8689 300.71 61.33C303.078 63.7586 304.262 66.8027 304.262 70.4618C304.262 71.498 304.165 72.4695 303.97 73.3762H286.695ZM286.549 67.9361H297.011C296.298 65.3777 294.578 64.0986 291.853 64.0986C289.03 64.0986 287.262 65.3777 286.549 67.9361Z" fill="#333333"/>
<path d="M308.402 82.6053V47.1467H315.702V82.6053H308.402Z" fill="#333333"/>
<path d="M120.895 79.6986C112.22 70.7876 112.709 56.2471 121.986 47.2217L132.444 37.0483L143.163 48.0603C151.838 56.9714 151.35 71.5117 142.073 80.5369L131.615 90.7105L120.895 79.6986Z" fill="#00FFD1"/>
</g>
<defs>
<linearGradient id="paint0_linear_1122_138" x1="336.072" y1="46.9112" x2="302.605" y2="103.032" gradientUnits="userSpaceOnUse">
<stop stop-color="#00FFD1"/>
<stop offset="1" stop-color="#276CEC"/>
</linearGradient>
<clipPath id="clip0_1122_138">
<rect width="264" height="57" fill="white" transform="translate(93 36)"/>
</clipPath>
</defs>
</svg>
