<svg width="450" height="131" viewBox="0 0 450 131" fill="none" xmlns="http://www.w3.org/2000/svg">
<rect x="0.5" y="0.5" width="449" height="130" rx="15.5" fill="#F9F9F9" stroke="#001167"/>
<g opacity="0.1">
<mask id="mask0_1122_82" style="mask-type:alpha" maskUnits="userSpaceOnUse" x="0" y="0" width="450" height="131">
<rect width="450" height="131" rx="16" fill="#AEBBFC"/>
</mask>
<g mask="url(#mask0_1122_82)">
<path d="M-24 -59.7928C7.5 -83.0839 90.5 -112.537 168.117 -66.8216C205.415 -44.8537 220.693 29.3727 168.117 72.8771C91.5 136.275 12.5 61.1042 28.5 9.67127C44.5 -41.7616 91.743 -52.764 228.126 -59.7928C364.508 -66.8216 516.361 46.5026 469.068 79.4666C413.606 118.125 319.048 146.381 295.408 138.034C271.768 129.687 157.207 49.594 295.408 -29.4808C405.969 -92.7406 564.536 -51.1532 630 -22.4519" stroke="#5994FF" stroke-width="15"/>
</g>
</g>
<g clip-path="url(#clip0_1122_82)">
<path fill-rule="evenodd" clip-rule="evenodd" d="M120.695 30.6189V66.4658H155.372C154.762 85.0897 139.47 100 120.695 100C101.534 100 86 84.4685 86 65.3096C86 46.1504 101.534 30.6189 120.695 30.6189Z" fill="#5994FF"/>
<path fill-rule="evenodd" clip-rule="evenodd" d="M120.695 38.4822V66.4427H147.743C147.267 80.9694 135.339 92.5996 120.695 92.5996C105.749 92.5996 93.6328 80.4849 93.6328 65.5409C93.6328 50.5968 105.749 38.4822 120.695 38.4822Z" fill="#276CEC"/>
<path fill-rule="evenodd" clip-rule="evenodd" d="M155.489 64.7555V30.5325H122.296C122.283 30.899 122.277 31.267 122.277 31.6364C122.277 49.9276 137.147 64.7555 155.489 64.7555Z" fill="#00FFD1"/>
<path d="M155.489 40.7483L144.504 30.5325H155.489V40.7483Z" fill="#016B58"/>
<path d="M191.037 47.0023C194.388 47.0023 197.218 48.1408 199.528 50.4177C201.837 52.6946 202.992 55.4595 202.992 58.7122C202.992 61.965 201.837 64.7297 199.528 67.0068C197.218 69.2838 194.388 70.4222 191.037 70.4222H185.913V81.1563H178.105V47.0023H191.037ZM191.037 63.1035C192.241 63.1035 193.233 62.6805 194.014 61.8349C194.794 60.9892 195.185 59.9483 195.185 58.7122C195.185 57.4762 194.794 56.4353 194.014 55.5896C193.233 54.7439 192.241 54.321 191.037 54.321H185.913V63.1035H191.037ZM213.379 53.3452C212.533 54.1909 211.508 54.6138 210.304 54.6138C209.101 54.6138 208.06 54.1909 207.181 53.3452C206.336 52.4669 205.913 51.4261 205.913 50.2225C205.913 49.019 206.336 47.9944 207.181 47.1487C208.06 46.2704 209.101 45.8313 210.304 45.8313C211.508 45.8313 212.533 46.2704 213.379 47.1487C214.257 47.9944 214.696 49.019 214.696 50.2225C214.696 51.4261 214.257 52.4669 213.379 53.3452ZM206.645 81.1563V56.7606H213.964V81.1563H206.645ZM233.618 63.7866H228.592V72.4226C228.592 73.3985 228.983 74.0166 229.763 74.2767C230.544 74.5368 231.829 74.6183 233.618 74.5207V81.1563C228.967 81.6442 225.746 81.2051 223.956 79.839C222.167 78.4402 221.273 75.9683 221.273 72.4226V63.7866H217.369V56.7606H221.273V52.1254L228.592 49.9298V56.7606H233.618V63.7866ZM248.998 81.8394C245.289 81.8394 242.199 80.6035 239.726 78.1312C237.286 75.659 236.066 72.6017 236.066 68.9585C236.066 65.3152 237.286 62.2578 239.726 59.7857C242.199 57.3135 245.289 56.0775 248.998 56.0775C251.34 56.0775 253.487 56.6468 255.439 57.7852C257.424 58.9237 258.953 60.4362 260.026 62.3228L253.634 66.031C252.755 64.2095 251.178 63.2986 248.9 63.2986C247.306 63.2986 245.989 63.8354 244.948 64.9088C243.907 65.9495 243.386 67.2995 243.386 68.9585C243.386 70.6174 243.907 71.9835 244.948 73.0569C245.989 74.0977 247.306 74.6183 248.9 74.6183C251.21 74.6183 252.788 73.7074 253.634 71.8859L260.026 75.5453C258.953 77.4643 257.44 78.9933 255.488 80.1317C253.536 81.2701 251.373 81.8394 248.998 81.8394ZM277.27 56.0775C279.873 56.0775 282.036 56.972 283.76 58.761C285.517 60.5501 286.395 63.022 286.395 66.1773V81.1563H279.075V67.2508C279.075 65.8197 278.669 64.7297 277.855 63.9817C277.075 63.2011 276.066 62.8107 274.83 62.8107C273.431 62.8107 272.325 63.2337 271.512 64.0793C270.699 64.9249 270.292 66.1773 270.292 67.8363V81.1563H262.972V47.0023H270.292V59.0538C271.756 57.0696 274.082 56.0775 277.27 56.0775ZM317.529 47.0023C322.246 47.0023 326.182 48.645 329.338 51.9302C332.526 55.183 334.12 59.2327 334.12 64.0793C334.12 68.9258 332.526 72.992 329.338 76.2772C326.182 79.5301 322.246 81.1563 317.529 81.1563H303.865V47.0023H317.529ZM317.529 73.6424C320.229 73.6424 322.408 72.7803 324.068 71.0565C325.759 69.3 326.605 66.9742 326.605 64.0793C326.605 61.1844 325.759 58.8749 324.068 57.1509C322.408 55.3944 320.229 54.5162 317.529 54.5162H311.673V73.6424H317.529ZM359.152 78.1312C356.647 80.6035 353.589 81.8394 349.978 81.8394C346.367 81.8394 343.308 80.6035 340.804 78.1312C338.298 75.6267 337.046 72.569 337.046 68.9585C337.046 65.3479 338.298 62.3066 340.804 59.8345C343.308 57.3298 346.367 56.0775 349.978 56.0775C353.589 56.0775 356.647 57.3298 359.152 59.8345C361.657 62.3066 362.909 65.3479 362.909 68.9585C362.909 72.569 361.657 75.6267 359.152 78.1312ZM345.976 73.1057C347.05 74.1791 348.383 74.7158 349.978 74.7158C351.572 74.7158 352.906 74.1791 353.979 73.1057C355.053 72.0323 355.589 70.65 355.589 68.9585C355.589 67.2669 355.053 65.8846 353.979 64.8112C352.906 63.7378 351.572 63.2011 349.978 63.2011C348.383 63.2011 347.05 63.7378 345.976 64.8112C344.903 65.8846 344.366 67.2669 344.366 68.9585C344.366 70.65 344.903 72.0323 345.976 73.1057Z" fill="#333333"/>
</g>
<defs>
<clipPath id="clip0_1122_82">
<rect width="280" height="71" fill="white" transform="translate(86 29)"/>
</clipPath>
</defs>
</svg>
