<svg width="225" height="52" viewBox="0 0 225 52" fill="none" xmlns="http://www.w3.org/2000/svg">
<path d="M28.1982 12.9049L26.6336 9.95711L10.9375 17.1667C8.2054 18.4216 7.02433 21.6268 8.30138 24.3206L8.4517 24.6376L28.9271 14.8608L33.0132 22.652C36.3114 28.9408 33.786 36.6772 27.3883 39.8833L17.1966 44.9907L12.1441 50.6472L10.9059 48.1432L4.87881 51.1636L1.35461 44.3143L7.49188 41.2387L6.06058 38.344L13.2188 38.3687L23.8641 33.034C26.4077 31.7593 27.4118 28.6834 26.1005 26.183L25.497 25.0323L4.74326 34.9421L1.2511 27.5759C-1.8503 21.034 1.01803 13.2499 7.65303 10.2023L23.0179 3.14488L21.3485 -0.000488281L34.9683 1.23636L28.1982 12.9049Z" fill="url(#paint0_linear_1120_166)"/>
<path d="M50.4746 11.6292C51.8721 11.6292 53.079 11.7755 54.0954 12.0683C55.1117 12.3401 55.9904 12.6747 56.7315 13.072L55.6516 16.5536C54.8259 16.1354 53.9895 15.8113 53.1425 15.5813C52.3167 15.3303 51.5227 15.2049 50.7605 15.2049C49.7865 15.2049 49.0454 15.3826 48.5372 15.7381C48.029 16.0936 47.775 16.5641 47.775 17.1496C47.775 17.8187 48.0185 18.3101 48.5055 18.6237C48.9925 18.9165 49.7441 19.2302 50.7605 19.5647L52.6344 20.1607C53.3754 20.4116 54.0636 20.7253 54.6988 21.1017C55.334 21.4571 55.874 21.8753 56.3186 22.3563C56.7844 22.8372 57.1444 23.3809 57.3985 23.9873C57.6526 24.5937 57.7796 25.2524 57.7796 25.9634C57.7796 26.7998 57.6208 27.5944 57.3032 28.3472C56.9856 29.079 56.4986 29.7273 55.8422 30.2919C55.207 30.8564 54.3918 31.306 53.3966 31.6406C52.4226 31.9542 51.2686 32.1111 49.9347 32.1111C48.6854 32.1111 47.4891 31.9856 46.3457 31.7347C45.2235 31.4628 44.186 31.0865 43.2332 30.6055L44.313 27.1239C45.2235 27.563 46.1128 27.908 46.9809 28.159C47.8491 28.4099 48.7595 28.5354 49.7124 28.5354C50.8346 28.5354 51.6392 28.3576 52.1262 28.0021C52.6344 27.6258 52.8884 27.1239 52.8884 26.4966C52.8884 26.2875 52.8461 26.0784 52.7614 25.8693C52.6767 25.6602 52.5073 25.4511 52.2532 25.2419C52.0203 25.0328 51.6815 24.8342 51.2369 24.646C50.8134 24.4369 50.2629 24.2278 49.5853 24.0187L48.029 23.4855C47.288 23.2136 46.5998 22.9104 45.9646 22.5758C45.3294 22.2413 44.7789 21.844 44.313 21.3839C43.8684 20.9239 43.519 20.3907 43.2649 19.7843C43.0108 19.1779 42.8838 18.4565 42.8838 17.62C42.8838 16.7627 43.0426 15.9681 43.3602 15.2362C43.699 14.5044 44.186 13.877 44.8212 13.3543C45.4776 12.8106 46.2716 12.3924 47.2033 12.0996C48.1561 11.786 49.2465 11.6292 50.4746 11.6292Z" fill="#333333"/>
<path d="M69.4673 20.0352H65.5608V26.4025C65.5608 27.0925 65.709 27.5735 66.0054 27.8453C66.323 28.1172 66.7571 28.2531 67.3076 28.2531C67.7311 28.2531 68.1546 28.2113 68.578 28.1276C69.0015 28.044 69.3297 27.929 69.5626 27.7826L70.2614 30.9505C69.9014 31.1387 69.3509 31.3269 68.6098 31.5151C67.8899 31.6824 67.117 31.7661 66.2913 31.7661C64.3221 31.7661 62.9246 31.3897 62.0988 30.6369C61.2942 29.8841 60.8919 28.7445 60.8919 27.218V20.0352H58.5099V16.7104H60.8919V12.131H65.5608V16.7104H69.4673V20.0352Z" fill="#333333"/>
<path d="M71.9985 18.0278C72.8666 17.5259 73.8406 17.1286 74.9205 16.8359C76.0216 16.5222 77.1438 16.3654 78.2872 16.3654C80.1716 16.3654 81.6856 16.815 82.829 17.7141C83.9723 18.6133 84.544 20.0457 84.544 22.0113V31.7661H80.9551L80.5422 30.2605H80.4151C79.9917 30.8042 79.3988 31.2537 78.6365 31.6092C77.8954 31.9438 77.0167 32.1111 76.0004 32.1111C75.1323 32.1111 74.37 31.9856 73.7136 31.7347C73.0784 31.4838 72.549 31.1492 72.1256 30.731C71.7021 30.3128 71.3739 29.8214 71.141 29.2568C70.9292 28.6713 70.8234 28.0544 70.8234 27.4062C70.8234 26.5279 71.0139 25.7752 71.3951 25.1478C71.7974 24.5205 72.3267 24.0082 72.9831 23.6109C73.6607 23.2136 74.4441 22.9209 75.3334 22.7327C76.2439 22.5445 77.2073 22.4504 78.2236 22.4504H79.8117V21.6349C79.8117 21.0703 79.6105 20.6416 79.2082 20.3489C78.8059 20.0352 78.2342 19.8784 77.4931 19.8784C76.8579 19.8784 76.2333 19.9725 75.6193 20.1607C75.0052 20.3489 74.3276 20.6521 73.5866 21.0703L71.9985 18.0278ZM79.8434 25.2733L78.7953 25.3047C78.2025 25.3256 77.7049 25.3883 77.3026 25.4929C76.9003 25.5974 76.5721 25.7333 76.318 25.9006C76.0851 26.047 75.9157 26.2352 75.8098 26.4652C75.7039 26.6743 75.651 26.8939 75.651 27.1239C75.651 27.7721 75.8416 28.2217 76.2227 28.4726C76.625 28.7026 77.0802 28.8177 77.5884 28.8177C78.0966 28.8177 78.5518 28.6713 78.9541 28.3785C79.3776 28.0858 79.674 27.7617 79.8434 27.4062V25.2733Z" fill="#333333"/>
<path d="M87.3301 31.7661V16.7104H91.0143L91.4907 19.3452C91.6813 18.9688 91.9142 18.6028 92.1895 18.2474C92.4647 17.871 92.7929 17.5469 93.174 17.275C93.5552 17.0032 93.9892 16.7836 94.4762 16.6163C94.9844 16.449 95.5455 16.3654 96.1596 16.3654C96.6254 16.3654 97.0489 16.4281 97.43 16.5536C97.8323 16.6582 98.1499 16.7836 98.3828 16.93L97.6206 20.5371C97.3876 20.4116 97.0912 20.2966 96.7313 20.192C96.3713 20.0875 95.9266 20.0352 95.3973 20.0352C94.4233 20.0352 93.6081 20.3489 92.9517 20.9762C92.3165 21.6035 91.9989 22.6909 91.9989 24.2382V31.7661H87.3301Z" fill="#333333"/>
<path d="M109.682 20.0352H105.775V26.4025C105.775 27.0925 105.924 27.5735 106.22 27.8453C106.538 28.1172 106.972 28.2531 107.522 28.2531C107.946 28.2531 108.369 28.2113 108.793 28.1276C109.216 28.044 109.544 27.929 109.777 27.7826L110.476 30.9505C110.116 31.1387 109.566 31.3269 108.824 31.5151C108.105 31.6824 107.332 31.7661 106.506 31.7661C104.537 31.7661 103.139 31.3897 102.313 30.6369C101.509 29.8841 101.107 28.7445 101.107 27.218V20.0352H98.7245V16.7104H101.107V12.131H105.775V16.7104H109.682V20.0352Z" fill="#333333"/>
<path d="M119.023 31.7661V12.1188H123.724V31.7661H119.023Z" fill="#333333"/>
<path d="M131.827 31.7661H127.127V16.7104H130.779L131.319 18.5924C131.997 17.9023 132.759 17.3587 133.606 16.9614C134.453 16.5641 135.374 16.3654 136.369 16.3654C138.084 16.3654 139.397 16.8254 140.307 17.7455C141.218 18.6656 141.673 20.0143 141.673 21.7917V31.7661H136.972V22.2622C136.972 21.5303 136.792 20.9553 136.433 20.5371C136.094 20.0979 135.586 19.8784 134.908 19.8784C134.4 19.8784 133.86 20.0248 133.288 20.3175C132.738 20.6103 132.251 20.9971 131.827 21.478V31.7661Z" fill="#333333"/>
<path d="M154.13 20.5684C153.559 20.2966 152.955 20.0875 152.32 19.9411C151.685 19.7738 151.071 19.6902 150.478 19.6902C149.927 19.6902 149.483 19.7843 149.144 19.9725C148.805 20.1607 148.636 20.4221 148.636 20.7566C148.636 21.1121 148.794 21.4153 149.112 21.6662C149.451 21.8963 150.107 22.1472 151.081 22.419L152.034 22.7013C153.304 23.0777 154.268 23.6318 154.924 24.3637C155.581 25.0747 155.909 25.9947 155.909 27.1239C155.909 27.8767 155.75 28.5667 155.432 29.194C155.115 29.8005 154.66 30.3232 154.067 30.7623C153.495 31.2015 152.796 31.536 151.97 31.7661C151.166 31.9961 150.266 32.1111 149.271 32.1111C148.191 32.1111 147.228 32.017 146.381 31.8288C145.555 31.6406 144.782 31.3687 144.062 31.0133L145.078 27.6571C145.692 27.9708 146.328 28.2322 146.984 28.4413C147.662 28.6295 148.35 28.7236 149.048 28.7236C149.853 28.7236 150.414 28.6086 150.732 28.3785C151.071 28.1485 151.24 27.8767 151.24 27.563C151.24 27.3748 151.198 27.218 151.113 27.0925C151.049 26.9462 150.922 26.8102 150.732 26.6848C150.541 26.5593 150.266 26.4443 149.906 26.3398C149.567 26.2143 149.123 26.0679 148.572 25.9006L147.587 25.6183C146.338 25.221 145.428 24.6774 144.856 23.9873C144.284 23.2764 143.999 22.3249 143.999 21.133C143.999 20.443 144.136 19.8157 144.411 19.2511C144.687 18.6656 145.078 18.1637 145.587 17.7455C146.116 17.3064 146.751 16.9718 147.492 16.7418C148.254 16.4909 149.123 16.3654 150.097 16.3654C151.071 16.3654 151.97 16.4595 152.796 16.6477C153.643 16.815 154.405 17.0555 155.083 17.3691L154.13 20.5684Z" fill="#333333"/>
<path d="M158.556 31.7661V16.7104H163.256V31.7661H158.556ZM160.906 13.762C160.101 13.762 159.487 13.5425 159.064 13.1034C158.64 12.6433 158.429 12.0996 158.429 11.4723C158.429 10.845 158.64 10.3118 159.064 9.87267C159.508 9.41263 160.122 9.18262 160.906 9.18262C161.689 9.18262 162.293 9.40218 162.716 9.8413C163.161 10.2804 163.383 10.8241 163.383 11.4723C163.383 12.1206 163.172 12.6642 162.748 13.1034C162.325 13.5425 161.711 13.762 160.906 13.762Z" fill="#333333"/>
<path d="M166.5 21.8858C166.5 21.0703 166.669 20.328 167.008 19.6588C167.347 18.9688 167.813 18.3833 168.406 17.9023C169.02 17.4005 169.729 17.0241 170.534 16.7732C171.359 16.5013 172.259 16.3654 173.233 16.3654C173.593 16.3654 174.006 16.3968 174.472 16.4595C174.938 16.5222 175.361 16.6059 175.742 16.7104H182.222V19.5647H180.761L178.982 19.2824C179.215 19.5961 179.406 19.9934 179.554 20.4743C179.723 20.9553 179.808 21.4362 179.808 21.9172C179.808 22.7118 179.66 23.4332 179.363 24.0814C179.067 24.7296 178.633 25.2942 178.061 25.7752C177.489 26.2561 176.791 26.6325 175.965 26.9043C175.139 27.1553 174.207 27.2807 173.17 27.2807C172.937 27.2807 172.715 27.2703 172.503 27.2494C172.291 27.2285 172.079 27.1971 171.868 27.1553C171.719 27.2389 171.582 27.3539 171.455 27.5003C171.328 27.6467 171.264 27.8349 171.264 28.0649C171.264 28.3367 171.359 28.5563 171.55 28.7236C171.762 28.8908 172.175 28.9745 172.789 28.9745H175.997C176.822 28.9745 177.585 29.0581 178.283 29.2254C178.982 29.3927 179.575 29.6645 180.062 30.0409C180.57 30.4173 180.962 30.9087 181.237 31.5151C181.512 32.1006 181.65 32.8116 181.65 33.648C181.65 34.4635 181.449 35.2163 181.047 35.9063C180.644 36.5964 180.073 37.1923 179.331 37.6942C178.612 38.1961 177.722 38.5829 176.664 38.8547C175.626 39.1475 174.472 39.2939 173.202 39.2939C170.83 39.2939 168.967 38.8861 167.612 38.0706C166.257 37.2551 165.579 36.0945 165.579 34.589C165.579 33.9198 165.801 33.3239 166.246 32.8011C166.712 32.2993 167.358 31.902 168.183 31.6092C167.929 31.4419 167.643 31.1596 167.326 30.7623C167.008 30.3441 166.849 29.8318 166.849 29.2254C166.849 28.5145 167.061 27.908 167.485 27.4062C167.929 26.8834 168.48 26.4652 169.136 26.1516C168.861 26.0052 168.565 25.8065 168.247 25.5556C167.95 25.2838 167.665 24.9701 167.389 24.6146C167.135 24.2591 166.924 23.8618 166.754 23.4227C166.585 22.9627 166.5 22.4504 166.5 21.8858ZM170.788 32.4247C170.534 32.5502 170.311 32.7384 170.121 32.9893C169.93 33.2402 169.835 33.5539 169.835 33.9303C169.835 34.4531 170.078 34.9026 170.565 35.279C171.074 35.6554 171.995 35.8436 173.329 35.8436C174.578 35.8436 175.499 35.6345 176.092 35.2163C176.706 34.819 177.013 34.3485 177.013 33.8048C177.013 33.3239 176.843 32.9684 176.505 32.7384C176.166 32.5293 175.594 32.4247 174.79 32.4247H170.788ZM175.234 21.8231C175.234 21.0912 175.033 20.5371 174.631 20.1607C174.25 19.7634 173.763 19.5647 173.17 19.5647C172.556 19.5647 172.058 19.7634 171.677 20.1607C171.296 20.5371 171.105 21.0912 171.105 21.8231C171.105 22.5549 171.296 23.1195 171.677 23.5168C172.079 23.8932 172.577 24.0814 173.17 24.0814C173.784 24.0814 174.281 23.8932 174.663 23.5168C175.044 23.1195 175.234 22.5549 175.234 21.8231Z" fill="#333333"/>
<path d="M189.087 31.7661H184.387V9.33945H189.087V17.9023C189.659 17.4632 190.337 17.0973 191.12 16.8045C191.904 16.5118 192.74 16.3654 193.629 16.3654C194.561 16.3654 195.366 16.5013 196.043 16.7732C196.721 17.045 197.282 17.4318 197.726 17.9337C198.171 18.4146 198.499 18.9897 198.711 19.6588C198.944 20.328 199.06 21.0703 199.06 21.8858V31.7661H194.36V22.6386C194.36 21.6349 194.148 20.9239 193.725 20.5057C193.322 20.0875 192.751 19.8784 192.009 19.8784C191.501 19.8784 190.983 19.9934 190.453 20.2234C189.924 20.4534 189.469 20.7566 189.087 21.133V31.7661Z" fill="#333333"/>
<path d="M211.576 20.0352H207.669V26.4025C207.669 27.0925 207.817 27.5735 208.114 27.8453C208.432 28.1172 208.866 28.2531 209.416 28.2531C209.84 28.2531 210.263 28.2113 210.687 28.1276C211.11 28.044 211.438 27.929 211.671 27.7826L212.37 30.9505C212.01 31.1387 211.459 31.3269 210.718 31.5151C209.998 31.6824 209.226 31.7661 208.4 31.7661C206.431 31.7661 205.033 31.3897 204.207 30.6369C203.403 29.8841 203 28.7445 203 27.218V20.0352H200.618V16.7104H203V12.131H207.669V16.7104H211.576V20.0352Z" fill="#333333"/>
<path d="M223.222 20.5684C222.651 20.2966 222.047 20.0875 221.412 19.9411C220.777 19.7738 220.163 19.6902 219.57 19.6902C219.019 19.6902 218.575 19.7843 218.236 19.9725C217.897 20.1607 217.728 20.4221 217.728 20.7566C217.728 21.1121 217.887 21.4153 218.204 21.6662C218.543 21.8963 219.199 22.1472 220.173 22.419L221.126 22.7013C222.397 23.0777 223.36 23.6318 224.016 24.3637C224.673 25.0747 225.001 25.9947 225.001 27.1239C225.001 27.8767 224.842 28.5667 224.525 29.194C224.207 29.8005 223.752 30.3232 223.159 30.7623C222.587 31.2015 221.888 31.536 221.063 31.7661C220.258 31.9961 219.358 32.1111 218.363 32.1111C217.283 32.1111 216.32 32.017 215.473 31.8288C214.647 31.6406 213.874 31.3687 213.154 31.0133L214.171 27.6571C214.785 27.9708 215.42 28.2322 216.076 28.4413C216.754 28.6295 217.442 28.7236 218.141 28.7236C218.945 28.7236 219.506 28.6086 219.824 28.3785C220.163 28.1485 220.332 27.8767 220.332 27.563C220.332 27.3748 220.29 27.218 220.205 27.0925C220.142 26.9462 220.015 26.8102 219.824 26.6848C219.633 26.5593 219.358 26.4443 218.998 26.3398C218.659 26.2143 218.215 26.0679 217.664 25.9006L216.68 25.6183C215.43 25.221 214.52 24.6774 213.948 23.9873C213.377 23.2764 213.091 22.3249 213.091 21.133C213.091 20.443 213.228 19.8157 213.504 19.2511C213.779 18.6656 214.171 18.1637 214.679 17.7455C215.208 17.3064 215.843 16.9718 216.584 16.7418C217.347 16.4909 218.215 16.3654 219.189 16.3654C220.163 16.3654 221.063 16.4595 221.888 16.6477C222.735 16.815 223.498 17.0555 224.175 17.3691L223.222 20.5684Z" fill="#333333"/>
<path d="M43.5801 40.34V35.7086H45.2807C45.7156 35.7086 46.0444 35.7588 46.2673 35.8592C46.4901 35.9574 46.6405 36.1015 46.7184 36.2916C46.7984 36.4816 46.8385 36.7111 46.8385 36.9802C46.8385 37.1852 46.7941 37.3656 46.7054 37.5215C46.6167 37.6773 46.4631 37.7916 46.2446 37.8642C46.5193 37.9261 46.7249 38.0617 46.8612 38.2709C46.9975 38.4781 47.0657 38.729 47.0657 39.0236C47.0657 39.4827 46.9348 39.8169 46.673 40.0261C46.4112 40.2354 45.9947 40.34 45.4235 40.34H43.5801ZM44.2357 37.672H45.4397C45.7361 37.672 45.9341 37.6101 46.0336 37.4862C46.1353 37.3603 46.1861 37.1937 46.1861 36.9866C46.1861 36.7624 46.1569 36.5937 46.0985 36.4805C46.0423 36.3674 45.9406 36.2916 45.7935 36.2531C45.6485 36.2126 45.444 36.1923 45.1801 36.1923H44.2357V37.672ZM44.2357 39.8628H45.3748C45.6171 39.8628 45.8151 39.8393 45.9687 39.7923C46.1245 39.7453 46.2392 39.6567 46.3127 39.5265C46.3863 39.3962 46.4231 39.2051 46.4231 38.9532C46.4231 38.8122 46.3982 38.6777 46.3484 38.5496C46.3008 38.4193 46.2132 38.3137 46.0855 38.2325C45.9579 38.1514 45.774 38.1108 45.5338 38.1108H44.2357V39.8628Z" fill="#333333"/>
<path d="M50.0425 40.4105C49.6595 40.4105 49.3447 40.3688 49.0981 40.2856C48.8536 40.2023 48.6632 40.088 48.5269 39.9429C48.3906 39.7977 48.2954 39.63 48.2413 39.44C48.1893 39.2478 48.1634 39.0428 48.1634 38.825V35.7086H48.819V38.8923C48.819 39.1763 48.8752 39.3898 48.9877 39.5329C49.1024 39.6759 49.2528 39.772 49.4388 39.8211C49.6249 39.8681 49.8261 39.8916 50.0425 39.8916C50.2632 39.8916 50.4601 39.8681 50.6331 39.8211C50.8084 39.772 50.9469 39.6759 51.0486 39.5329C51.1502 39.3898 51.2011 39.1763 51.2011 38.8923V35.7086H51.8567V38.825C51.8567 39.0386 51.8296 39.2414 51.7755 39.4336C51.7236 39.6236 51.6317 39.7923 51.4997 39.9396C51.3677 40.087 51.1838 40.2023 50.948 40.2856C50.7121 40.3688 50.4103 40.4105 50.0425 40.4105Z" fill="#333333"/>
<path d="M53.1556 39.8596H54.0513V36.1859H53.1556V35.7086H55.5962V36.1859H54.7037V39.8596H55.5962V40.34H53.1556V39.8596Z" fill="#333333"/>
<path d="M56.9535 35.7086H57.6059V39.8436H59.7121V40.34H56.9535V35.7086Z" fill="#333333"/>
<path d="M60.706 40.34V35.7086H62.5689C63.0038 35.7086 63.351 35.778 63.6107 35.9168C63.8703 36.0535 64.0574 36.2393 64.1721 36.4741C64.2889 36.709 64.3474 36.9738 64.3474 37.2684V38.7962C64.3474 39.298 64.2002 39.6813 63.906 39.9461C63.6139 40.2087 63.1704 40.34 62.5754 40.34H60.706ZM61.3616 39.8596H62.5105C62.7355 39.8596 62.9367 39.8361 63.1141 39.7891C63.2937 39.74 63.4354 39.6439 63.5393 39.5009C63.6431 39.3578 63.695 39.1443 63.695 38.8603V37.23C63.695 36.9439 63.642 36.7272 63.536 36.5798C63.4322 36.4304 63.2904 36.3289 63.1109 36.2756C62.9334 36.22 62.7333 36.1923 62.5105 36.1923H61.3616V39.8596Z" fill="#333333"/>
<path d="M68.4836 38.5208L66.8219 35.7086H67.5132L68.8114 37.9571L70.116 35.7086H70.7878L69.1359 38.5208V40.34H68.4836V38.5208Z" fill="#333333"/>
<path d="M73.5148 40.4105C73.1231 40.4105 72.8008 40.371 72.5476 40.292C72.2966 40.213 72.1008 40.1019 71.9602 39.9589C71.8196 39.8137 71.7211 39.6418 71.6649 39.4432C71.6086 39.2446 71.5805 39.0247 71.5805 38.7834V37.3261C71.5805 37.0805 71.6075 36.8553 71.6616 36.6503C71.7179 36.4453 71.8163 36.267 71.957 36.1154C72.0976 35.9638 72.2934 35.8464 72.5444 35.7631C72.7975 35.6798 73.121 35.6382 73.5148 35.6382C73.8934 35.6382 74.2049 35.682 74.4494 35.7695C74.6939 35.857 74.8843 35.9798 75.0206 36.1378C75.1569 36.2937 75.2521 36.4763 75.3062 36.6855C75.3625 36.8948 75.3906 37.1222 75.3906 37.3677V38.7386C75.3906 38.9756 75.3625 39.1966 75.3062 39.4016C75.2521 39.6044 75.1559 39.7816 75.0174 39.9332C74.8811 40.0827 74.6907 40.2002 74.4462 40.2856C74.2017 40.3688 73.8912 40.4105 73.5148 40.4105ZM73.5148 39.8916C73.7939 39.8916 74.0232 39.8649 74.2028 39.8115C74.3845 39.756 74.5187 39.6557 74.6052 39.5105C74.6939 39.3653 74.7383 39.156 74.7383 38.8827V37.2076C74.7383 36.9321 74.6939 36.7186 74.6052 36.567C74.5165 36.4154 74.3813 36.3097 74.1995 36.2499C74.02 36.188 73.7917 36.157 73.5148 36.157C73.24 36.157 73.0074 36.188 72.817 36.2499C72.6266 36.3097 72.4816 36.4154 72.3821 36.567C72.2847 36.7186 72.2361 36.9321 72.2361 37.2076V38.8827C72.2361 39.156 72.2847 39.3653 72.3821 39.5105C72.4795 39.6557 72.6234 39.756 72.8137 39.8115C73.0041 39.8649 73.2378 39.8916 73.5148 39.8916Z" fill="#333333"/>
<path d="M78.5557 40.4105C78.1727 40.4105 77.8579 40.3688 77.6113 40.2856C77.3668 40.2023 77.1764 40.088 77.0401 39.9429C76.9038 39.7977 76.8086 39.63 76.7545 39.44C76.7025 39.2478 76.6766 39.0428 76.6766 38.825V35.7086H77.3321V38.8923C77.3321 39.1763 77.3884 39.3898 77.5009 39.5329C77.6156 39.6759 77.766 39.772 77.952 39.8211C78.1381 39.8681 78.3393 39.8916 78.5557 39.8916C78.7764 39.8916 78.9732 39.8681 79.1463 39.8211C79.3216 39.772 79.4601 39.6759 79.5617 39.5329C79.6634 39.3898 79.7143 39.1763 79.7143 38.8923V35.7086H80.3699V38.825C80.3699 39.0386 80.3428 39.2414 80.2887 39.4336C80.2368 39.6236 80.1448 39.7923 80.0129 39.9396C79.8809 40.087 79.697 40.2023 79.4611 40.2856C79.2253 40.3688 78.9235 40.4105 78.5557 40.4105Z" fill="#333333"/>
<path d="M81.7597 40.34V35.7086H83.853C84.1169 35.7086 84.3463 35.7514 84.541 35.8368C84.7379 35.92 84.8904 36.062 84.9986 36.2627C85.1089 36.4613 85.1641 36.7336 85.1641 37.0795C85.1641 37.4531 85.1025 37.7307 84.9791 37.9122C84.858 38.0916 84.6989 38.2218 84.502 38.303L85.4984 40.34H84.8266L83.8952 38.4183H82.4152V40.34H81.7597ZM82.4152 37.9314H83.7978C83.9882 37.9314 84.1342 37.8962 84.2359 37.8257C84.3376 37.7553 84.4079 37.6603 84.4469 37.5407C84.488 37.419 84.5085 37.2845 84.5085 37.1371C84.5085 36.9877 84.4956 36.8414 84.4696 36.6983C84.4458 36.5553 84.3895 36.4368 84.3008 36.3428C84.2121 36.2467 84.0693 36.1987 83.8724 36.1987H82.4152V37.9314Z" fill="#333333"/>
<path d="M88.2391 35.7086H90.1149C90.5087 35.7086 90.8246 35.8197 91.0626 36.0417C91.3006 36.2638 91.4196 36.6385 91.4196 37.166C91.4196 37.5354 91.3655 37.8279 91.2573 38.0435C91.1491 38.2592 90.9966 38.414 90.7997 38.508C90.6028 38.5998 90.3713 38.6457 90.1052 38.6457H88.8947V40.34H88.2391V35.7086ZM90.1182 38.1556C90.3086 38.1556 90.4492 38.1108 90.5401 38.0211C90.631 37.9293 90.6905 37.8108 90.7186 37.6656C90.7489 37.5204 90.764 37.3688 90.764 37.2108C90.764 37.0592 90.7521 36.9055 90.7283 36.7496C90.7045 36.5937 90.6483 36.4635 90.5596 36.3588C90.473 36.2521 90.3313 36.1987 90.1344 36.1987H88.8947V38.1556H90.1182Z" fill="#333333"/>
<path d="M92.5757 40.34V35.7086H94.669C94.933 35.7086 95.1623 35.7514 95.3571 35.8368C95.5539 35.92 95.7065 36.062 95.8147 36.2627C95.925 36.4613 95.9802 36.7336 95.9802 37.0795C95.9802 37.4531 95.9185 37.7307 95.7952 37.9122C95.674 38.0916 95.515 38.2218 95.3181 38.303L96.3145 40.34H95.6427L94.7112 38.4183H93.2313V40.34H92.5757ZM93.2313 37.9314H94.6139C94.8043 37.9314 94.9503 37.8962 95.052 37.8257C95.1537 37.7553 95.224 37.6603 95.2629 37.5407C95.3041 37.419 95.3246 37.2845 95.3246 37.1371C95.3246 36.9877 95.3116 36.8414 95.2857 36.6983C95.2619 36.5553 95.2056 36.4368 95.1169 36.3428C95.0282 36.2467 94.8854 36.1987 94.6885 36.1987H93.2313V37.9314Z" fill="#333333"/>
<path d="M99.1907 40.4105C98.7991 40.4105 98.4767 40.371 98.2235 40.292C97.9726 40.213 97.7768 40.1019 97.6361 39.9589C97.4955 39.8137 97.397 39.6418 97.3408 39.4432C97.2845 39.2446 97.2564 39.0247 97.2564 38.7834V37.3261C97.2564 37.0805 97.2835 36.8553 97.3375 36.6503C97.3938 36.4453 97.4922 36.267 97.6329 36.1154C97.7735 35.9638 97.9693 35.8464 98.2203 35.7631C98.4734 35.6798 98.7969 35.6382 99.1907 35.6382C99.5693 35.6382 99.8809 35.682 100.125 35.7695C100.37 35.857 100.56 35.9798 100.697 36.1378C100.833 36.2937 100.928 36.4763 100.982 36.6855C101.038 36.8948 101.067 37.1222 101.067 37.3677V38.7386C101.067 38.9756 101.038 39.1966 100.982 39.4016C100.928 39.6044 100.832 39.7816 100.693 39.9332C100.557 40.0827 100.367 40.2002 100.122 40.2856C99.8776 40.3688 99.5671 40.4105 99.1907 40.4105ZM99.1907 39.8916C99.4698 39.8916 99.6991 39.8649 99.8787 39.8115C100.06 39.756 100.195 39.6557 100.281 39.5105C100.37 39.3653 100.414 39.156 100.414 38.8827V37.2076C100.414 36.9321 100.37 36.7186 100.281 36.567C100.192 36.4154 100.057 36.3097 99.8755 36.2499C99.6959 36.188 99.4676 36.157 99.1907 36.157C98.9159 36.157 98.6833 36.188 98.4929 36.2499C98.3025 36.3097 98.1576 36.4154 98.058 36.567C97.9607 36.7186 97.912 36.9321 97.912 37.2076V38.8827C97.912 39.156 97.9607 39.3653 98.058 39.5105C98.1554 39.6557 98.2993 39.756 98.4897 39.8115C98.6801 39.8649 98.9137 39.8916 99.1907 39.8916Z" fill="#333333"/>
<path d="M102.411 40.34V35.7086H103.011L104.608 38.2709L106.189 35.7086H106.766V40.34H106.15V36.7496L104.835 38.8731H104.352L103.034 36.756V40.34H102.411Z" fill="#333333"/>
<path d="M108.124 39.8596H109.019V36.1859H108.124V35.7086H110.564V36.1859H109.672V39.8596H110.564V40.34H108.124V39.8596Z" fill="#333333"/>
<path d="M111.922 35.7086H112.418L115.105 39.4144V35.7086H115.68V40.34H115.099L112.496 36.804V40.34H111.922V35.7086Z" fill="#333333"/>
<path d="M117.128 35.7086H120.059V36.1891H117.78V37.7136H119.792V38.1941H117.78V39.8596H120.098V40.34H117.128V35.7086Z" fill="#333333"/>
<path d="M121.237 35.7086H121.734L124.421 39.4144V35.7086H124.996V40.34H124.415L121.812 36.804V40.34H121.237V35.7086Z" fill="#333333"/>
<path d="M127.362 40.34V36.2371H126.009V35.7086H129.371V36.2371H128.015V40.34H127.362Z" fill="#333333"/>
<path d="M131.651 35.7086H132.323L133.618 39.3984L134.913 35.7086H135.591L133.9 40.34H133.326L131.651 35.7086Z" fill="#333333"/>
<path d="M136.611 35.7086H139.541V36.1891H137.263V37.7136H139.275V38.1941H137.263V39.8596H139.58V40.34H136.611V35.7086Z" fill="#333333"/>
<path d="M140.72 35.7086H141.217L143.904 39.4144V35.7086H144.479V40.34H143.898L141.295 36.804V40.34H140.72V35.7086Z" fill="#333333"/>
<path d="M146.845 40.34V36.2371H145.492V35.7086H148.854V36.2371H147.498V40.34H146.845Z" fill="#333333"/>
<path d="M151.688 40.4105C151.305 40.4105 150.99 40.3688 150.744 40.2856C150.499 40.2023 150.309 40.088 150.173 39.9429C150.036 39.7977 149.941 39.63 149.887 39.44C149.835 39.2478 149.809 39.0428 149.809 38.825V35.7086H150.465V38.8923C150.465 39.1763 150.521 39.3898 150.633 39.5329C150.748 39.6759 150.898 39.772 151.084 39.8211C151.271 39.8681 151.472 39.8916 151.688 39.8916C151.909 39.8916 152.106 39.8681 152.279 39.8211C152.454 39.772 152.593 39.6759 152.694 39.5329C152.796 39.3898 152.847 39.1763 152.847 38.8923V35.7086H153.502V38.825C153.502 39.0386 153.475 39.2414 153.421 39.4336C153.369 39.6236 153.277 39.7923 153.145 39.9396C153.013 40.087 152.829 40.2023 152.594 40.2856C152.358 40.3688 152.056 40.4105 151.688 40.4105Z" fill="#333333"/>
<path d="M154.892 40.34V35.7086H156.985C157.249 35.7086 157.479 35.7514 157.673 35.8368C157.87 35.92 158.023 36.062 158.131 36.2627C158.241 36.4613 158.297 36.7336 158.297 37.0795C158.297 37.4531 158.235 37.7307 158.112 37.9122C157.99 38.0916 157.831 38.2218 157.635 38.303L158.631 40.34H157.959L157.028 38.4183H155.548V40.34H154.892ZM155.548 37.9314H156.93C157.121 37.9314 157.267 37.8962 157.368 37.8257C157.47 37.7553 157.54 37.6603 157.579 37.5407C157.62 37.419 157.641 37.2845 157.641 37.1371C157.641 36.9877 157.628 36.8414 157.602 36.6983C157.578 36.5553 157.522 36.4368 157.433 36.3428C157.345 36.2467 157.202 36.1987 157.005 36.1987H155.548V37.9314Z" fill="#333333"/>
<path d="M159.677 35.7086H162.607V36.1891H160.329V37.7136H162.341V38.1941H160.329V39.8596H162.646V40.34H159.677V35.7086Z" fill="#333333"/>
<defs>
<linearGradient id="paint0_linear_1120_166" x1="32.3272" y1="1.39926" x2="-3.60678" y2="43.0827" gradientUnits="userSpaceOnUse">
<stop offset="0.104981" stop-color="#00FFD1"/>
<stop offset="0.673525" stop-color="#276CEC"/>
<stop offset="0.972594" stop-color="#276CEC" stop-opacity="0"/>
</linearGradient>
</defs>
</svg>
