<svg width="260" height="59" viewBox="0 0 260 59" fill="none" xmlns="http://www.w3.org/2000/svg">
<path d="M32.5835 14.8818L30.7756 11.4826L12.6377 19.7964C9.48069 21.2435 8.11589 24.9396 9.59159 28.0459L9.7653 28.4115L33.4258 17.1373L38.1476 26.1218C41.9588 33.3737 39.0405 42.295 31.6476 45.9921L19.8706 51.8817L14.0321 58.4046L12.6013 55.517L5.63662 59L1.5642 51.1017L8.65618 47.5551L7.00223 44.2171L15.2739 44.2456L27.5752 38.0938C30.5145 36.6239 31.6748 33.0769 30.1595 30.1936L29.4621 28.8666L5.47998 40.2941L1.44459 31.7998C-2.13926 24.256 1.17526 15.2798 8.84239 11.7654L26.5974 3.62709L24.6683 0L40.4067 1.42628L32.5835 14.8818Z" fill="url(#paint0_linear_1120_921)"/>
<path d="M58.3254 13.4111C59.9402 13.4111 61.3349 13.5799 62.5093 13.9175C63.6838 14.2309 64.6992 14.6167 65.5555 15.0749L64.3077 19.0897C63.3535 18.6075 62.387 18.2337 61.4083 17.9685C60.454 17.6791 59.5365 17.5344 58.6557 17.5344C57.5302 17.5344 56.6738 17.7394 56.0866 18.1493C55.4993 18.5592 55.2057 19.1018 55.2057 19.7769C55.2057 20.5486 55.4871 21.1152 56.0499 21.4769C56.6126 21.8145 57.4812 22.1762 58.6557 22.562L60.8211 23.2492C61.6774 23.5386 62.4726 23.9003 63.2067 24.3343C63.9407 24.7442 64.5646 25.2265 65.0784 25.7811C65.6167 26.3357 66.0327 26.9626 66.3263 27.6619C66.6199 28.3612 66.7667 29.1208 66.7667 29.9406C66.7667 30.9051 66.5832 31.8214 66.2162 32.6895C65.8492 33.5335 65.2864 34.281 64.5279 34.932C63.7939 35.5831 62.8519 36.1015 61.7019 36.4873C60.5764 36.849 59.2429 37.0299 57.7014 37.0299C56.2578 37.0299 54.8754 36.8852 53.5542 36.5958C52.2574 36.2824 51.0585 35.8483 49.9574 35.2937L51.2053 31.2789C52.2574 31.7853 53.285 32.1831 54.2882 32.4725C55.2914 32.7618 56.3435 32.9065 57.4445 32.9065C58.7413 32.9065 59.6711 32.7016 60.2338 32.2916C60.8211 31.8576 61.1147 31.2789 61.1147 30.5555C61.1147 30.3144 61.0657 30.0732 60.9679 29.8321C60.87 29.591 60.6743 29.3498 60.3806 29.1087C60.1115 28.8676 59.72 28.6385 59.2062 28.4215C58.7168 28.1804 58.0807 27.9392 57.2977 27.6981L55.4993 27.0832C54.643 26.7697 53.8478 26.4201 53.1138 26.0343C52.3797 25.6485 51.7436 25.1903 51.2053 24.6598C50.6915 24.1294 50.2877 23.5145 49.9941 22.8152C49.7005 22.1159 49.5537 21.284 49.5537 20.3195C49.5537 19.3308 49.7372 18.4145 50.1042 17.5706C50.4957 16.7266 51.0585 16.0032 51.7925 15.4004C52.551 14.7735 53.4685 14.2912 54.5451 13.9536C55.6462 13.5919 56.9062 13.4111 58.3254 13.4111Z" fill="white"/>
<path d="M80.2725 23.1045H75.7583V30.447C75.7583 31.2427 75.9295 31.7973 76.2721 32.1108C76.6391 32.4243 77.1407 32.581 77.7768 32.581C78.2662 32.581 78.7556 32.5328 79.2449 32.4363C79.7343 32.3399 80.1135 32.2072 80.3827 32.0385L81.1901 35.6916C80.7741 35.9086 80.138 36.1256 79.2816 36.3426C78.4497 36.5355 77.5566 36.632 76.6024 36.632C74.3269 36.632 72.712 36.198 71.7578 35.3299C70.828 34.4618 70.3632 33.1477 70.3632 31.3874V23.1045H67.6105V19.2706H70.3632V13.9898H75.7583V19.2706H80.2725V23.1045Z" fill="white"/>
<path d="M83.1975 20.7897C84.2007 20.211 85.3262 19.7528 86.574 19.4152C87.8463 19.0535 89.1431 18.8727 90.4644 18.8727C92.642 18.8727 94.3914 19.3911 95.7127 20.428C97.0339 21.4649 97.6946 23.1166 97.6946 25.3832V36.632H93.5473L93.0702 34.8959H92.9234C92.434 35.5228 91.7489 36.0412 90.8681 36.4512C90.0117 36.837 88.9963 37.0299 87.8219 37.0299C86.8187 37.0299 85.9379 36.8852 85.1794 36.5958C84.4453 36.3065 83.8336 35.9207 83.3443 35.4384C82.8549 34.9561 82.4757 34.3895 82.2065 33.7384C81.9619 33.0633 81.8395 32.3519 81.8395 31.6044C81.8395 30.5917 82.0597 29.7236 82.5002 29.0002C82.965 28.2768 83.5767 27.686 84.3352 27.2279C85.1182 26.7697 86.0235 26.4322 87.0511 26.2151C88.1032 25.9981 89.2165 25.8896 90.391 25.8896H92.226V24.9492C92.226 24.2981 91.9936 23.8038 91.5287 23.4662C91.0638 23.1045 90.4032 22.9237 89.5468 22.9237C88.8128 22.9237 88.091 23.0322 87.3814 23.2492C86.6719 23.4662 85.8889 23.8159 85.0326 24.2981L83.1975 20.7897ZM92.2627 29.1449L91.0516 29.181C90.3665 29.2052 89.7915 29.2775 89.3266 29.3981C88.8617 29.5186 88.4825 29.6754 88.1889 29.8683C87.9197 30.0371 87.724 30.2541 87.6017 30.5193C87.4793 30.7605 87.4181 31.0136 87.4181 31.2789C87.4181 32.0264 87.6384 32.5448 88.0788 32.8342C88.5437 33.0994 89.0697 33.2321 89.6569 33.2321C90.2442 33.2321 90.7702 33.0633 91.2351 32.7257C91.7244 32.3881 92.067 32.0143 92.2627 31.6044V29.1449Z" fill="white"/>
<path d="M100.914 36.632V19.2706H105.171L105.722 22.3088C105.942 21.8748 106.211 21.4528 106.529 21.0429C106.847 20.6088 107.227 20.2351 107.667 19.9216C108.107 19.6081 108.609 19.355 109.172 19.1621C109.759 18.9691 110.407 18.8727 111.117 18.8727C111.655 18.8727 112.145 18.945 112.585 19.0897C113.05 19.2103 113.417 19.355 113.686 19.5238L112.805 23.6833C112.536 23.5386 112.194 23.406 111.778 23.2854C111.362 23.1648 110.848 23.1045 110.236 23.1045C109.111 23.1045 108.169 23.4662 107.41 24.1896C106.676 24.913 106.309 26.1669 106.309 27.9513V36.632H100.914Z" fill="white"/>
<path d="M126.743 23.1045H122.229V30.447C122.229 31.2427 122.4 31.7973 122.742 32.1108C123.109 32.4243 123.611 32.581 124.247 32.581C124.737 32.581 125.226 32.5328 125.715 32.4363C126.205 32.3399 126.584 32.2072 126.853 32.0385L127.66 35.6916C127.244 35.9086 126.608 36.1256 125.752 36.3426C124.92 36.5355 124.027 36.632 123.073 36.632C120.797 36.632 119.182 36.198 118.228 35.3299C117.298 34.4618 116.833 33.1477 116.833 31.3874V23.1045H114.081V19.2706H116.833V13.9898H122.229V19.2706H126.743V23.1045Z" fill="white"/>
<path d="M137.537 36.632V13.9757H142.969V36.632H137.537Z" fill="white"/>
<path d="M152.333 36.632H146.901V19.2706H151.122L151.746 21.4407C152.529 20.645 153.41 20.0181 154.388 19.5599C155.367 19.1018 156.431 18.8727 157.581 18.8727C159.563 18.8727 161.08 19.4032 162.132 20.4642C163.184 21.5251 163.71 23.0804 163.71 25.13V36.632H158.279V25.6726C158.279 24.8286 158.071 24.1655 157.655 23.6833C157.263 23.1769 156.676 22.9237 155.893 22.9237C155.306 22.9237 154.682 23.0925 154.021 23.4301C153.385 23.7677 152.822 24.2138 152.333 24.7684V36.632Z" fill="white"/>
<path d="M178.105 23.7194C177.445 23.406 176.747 23.1648 176.013 22.996C175.279 22.8031 174.57 22.7067 173.885 22.7067C173.249 22.7067 172.735 22.8152 172.343 23.0322C171.952 23.2492 171.756 23.5506 171.756 23.9365C171.756 24.3464 171.94 24.696 172.307 24.9854C172.698 25.2506 173.457 25.54 174.582 25.8534L175.683 26.179C177.151 26.613 178.264 27.252 179.023 28.096C179.781 28.9158 180.161 29.9768 180.161 31.2789C180.161 32.147 179.977 32.9427 179.61 33.6661C179.243 34.3654 178.717 34.9682 178.032 35.4746C177.371 35.9809 176.564 36.3668 175.61 36.632C174.68 36.8972 173.64 37.0299 172.49 37.0299C171.242 37.0299 170.129 36.9214 169.15 36.7043C168.196 36.4873 167.303 36.1739 166.471 35.7639L167.646 31.8938C168.355 32.2555 169.089 32.5569 169.848 32.798C170.631 33.015 171.426 33.1235 172.233 33.1235C173.163 33.1235 173.811 32.9909 174.178 32.7257C174.57 32.4604 174.766 32.147 174.766 31.7853C174.766 31.5682 174.717 31.3874 174.619 31.2427C174.545 31.0739 174.399 30.9172 174.178 30.7725C173.958 30.6278 173.64 30.4952 173.224 30.3747C172.833 30.23 172.319 30.0612 171.683 29.8683L170.545 29.5427C169.101 29.0846 168.049 28.4577 167.389 27.6619C166.728 26.8421 166.398 25.7449 166.398 24.3705C166.398 23.5748 166.557 22.8514 166.875 22.2003C167.193 21.5251 167.646 20.9464 168.233 20.4642C168.844 19.9578 169.578 19.572 170.435 19.3067C171.316 19.0174 172.319 18.8727 173.444 18.8727C174.57 18.8727 175.61 18.9812 176.564 19.1982C177.543 19.3911 178.424 19.6684 179.206 20.0301L178.105 23.7194Z" fill="white"/>
<path d="M183.219 36.632V19.2706H188.651V36.632H183.219ZM185.935 15.8706C185.005 15.8706 184.296 15.6174 183.806 15.1111C183.317 14.5806 183.072 13.9536 183.072 13.2302C183.072 12.5068 183.317 11.892 183.806 11.3856C184.32 10.8551 185.03 10.5898 185.935 10.5898C186.84 10.5898 187.538 10.843 188.027 11.3494C188.541 11.8558 188.798 12.4827 188.798 13.2302C188.798 13.9777 188.553 14.6047 188.064 15.1111C187.575 15.6174 186.865 15.8706 185.935 15.8706Z" fill="white"/>
<path d="M192.4 25.2386C192.4 24.2981 192.595 23.4421 192.987 22.6705C193.378 21.8748 193.916 21.1996 194.602 20.645C195.311 20.0663 196.131 19.6323 197.061 19.3429C198.015 19.0294 199.055 18.8727 200.18 18.8727C200.596 18.8727 201.073 18.9089 201.612 18.9812C202.15 19.0535 202.639 19.15 203.08 19.2706H210.567V22.562H208.878L206.823 22.2365C207.092 22.5982 207.313 23.0563 207.484 23.6109C207.68 24.1655 207.777 24.7201 207.777 25.2747C207.777 26.191 207.606 27.0229 207.264 27.7704C206.921 28.5179 206.419 29.169 205.759 29.7236C205.098 30.2782 204.291 30.7122 203.337 31.0257C202.382 31.3151 201.306 31.4597 200.107 31.4597C199.838 31.4597 199.581 31.4477 199.336 31.4236C199.091 31.3995 198.847 31.3633 198.602 31.3151C198.431 31.4115 198.272 31.5441 198.125 31.7129C197.978 31.8817 197.905 32.0987 197.905 32.364C197.905 32.6775 198.015 32.9306 198.235 33.1235C198.48 33.3164 198.957 33.4129 199.666 33.4129H203.373C204.327 33.4129 205.208 33.5094 206.016 33.7023C206.823 33.8952 207.508 34.2086 208.071 34.6427C208.658 35.0767 209.111 35.6434 209.429 36.3426C209.747 37.0178 209.906 37.8377 209.906 38.8022C209.906 39.7426 209.674 40.6107 209.209 41.4064C208.744 42.2021 208.083 42.8894 207.227 43.4681C206.395 44.0468 205.367 44.4929 204.144 44.8063C202.945 45.1439 201.612 45.3127 200.144 45.3127C197.403 45.3127 195.25 44.8425 193.684 43.9021C192.118 42.9617 191.335 41.6234 191.335 39.8873C191.335 39.1157 191.592 38.4284 192.106 37.8256C192.644 37.2469 193.39 36.7887 194.345 36.4512C194.051 36.2582 193.721 35.9327 193.354 35.4746C192.987 34.9923 192.803 34.4015 192.803 33.7023C192.803 32.8824 193.048 32.1831 193.537 31.6044C194.051 31.0016 194.687 30.5193 195.446 30.1576C195.128 29.9888 194.785 29.7598 194.418 29.4704C194.076 29.1569 193.745 28.7952 193.427 28.3853C193.134 27.9754 192.889 27.5172 192.693 27.0109C192.497 26.4804 192.4 25.8896 192.4 25.2386ZM197.354 37.3916C197.061 37.5362 196.804 37.7533 196.583 38.0426C196.363 38.332 196.253 38.6937 196.253 39.1277C196.253 39.7305 196.535 40.249 197.097 40.683C197.685 41.117 198.749 41.3341 200.29 41.3341C201.734 41.3341 202.798 41.0929 203.483 40.6107C204.193 40.1525 204.548 39.61 204.548 38.983C204.548 38.4284 204.352 38.0185 203.96 37.7533C203.569 37.5121 202.908 37.3916 201.979 37.3916H197.354ZM202.492 25.1662C202.492 24.3223 202.26 23.6833 201.795 23.2492C201.355 22.7911 200.792 22.562 200.107 22.562C199.397 22.562 198.822 22.7911 198.382 23.2492C197.941 23.6833 197.721 24.3223 197.721 25.1662C197.721 26.0102 197.941 26.6612 198.382 27.1194C198.847 27.5534 199.422 27.7704 200.107 27.7704C200.816 27.7704 201.391 27.5534 201.832 27.1194C202.272 26.6612 202.492 26.0102 202.492 25.1662Z" fill="white"/>
<path d="M218.501 36.632H213.069V10.7707H218.501V20.645C219.161 20.1386 219.944 19.7167 220.849 19.3791C221.755 19.0415 222.721 18.8727 223.749 18.8727C224.825 18.8727 225.755 19.0294 226.538 19.3429C227.321 19.6564 227.97 20.1025 228.483 20.6812C228.997 21.2358 229.376 21.8989 229.621 22.6705C229.89 23.4421 230.025 24.2981 230.025 25.2386V36.632H224.593V26.1066C224.593 24.9492 224.348 24.1294 223.859 23.6471C223.394 23.1648 222.733 22.9237 221.877 22.9237C221.29 22.9237 220.69 23.0563 220.079 23.3216C219.467 23.5868 218.941 23.9365 218.501 24.3705V36.632Z" fill="white"/>
<path d="M244.487 23.1045H239.973V30.447C239.973 31.2427 240.144 31.7973 240.487 32.1108C240.854 32.4243 241.355 32.581 241.992 32.581C242.481 32.581 242.97 32.5328 243.46 32.4363C243.949 32.3399 244.328 32.2072 244.597 32.0385L245.405 35.6916C244.989 35.9086 244.353 36.1256 243.496 36.3426C242.664 36.5355 241.771 36.632 240.817 36.632C238.542 36.632 236.927 36.198 235.972 35.3299C235.043 34.4618 234.578 33.1477 234.578 31.3874V23.1045H231.825V19.2706H234.578V13.9898H239.973V19.2706H244.487V23.1045Z" fill="white"/>
<path d="M257.945 23.7194C257.285 23.406 256.587 23.1648 255.853 22.996C255.119 22.8031 254.41 22.7067 253.725 22.7067C253.089 22.7067 252.575 22.8152 252.183 23.0322C251.792 23.2492 251.596 23.5506 251.596 23.9365C251.596 24.3464 251.78 24.696 252.147 24.9854C252.538 25.2506 253.297 25.54 254.422 25.8534L255.523 26.179C256.991 26.613 258.104 27.252 258.863 28.096C259.621 28.9158 260.001 29.9768 260.001 31.2789C260.001 32.147 259.817 32.9427 259.45 33.6661C259.083 34.3654 258.557 34.9682 257.872 35.4746C257.211 35.9809 256.404 36.3668 255.45 36.632C254.52 36.8972 253.48 37.0299 252.33 37.0299C251.082 37.0299 249.969 36.9214 248.99 36.7043C248.036 36.4873 247.143 36.1739 246.311 35.7639L247.486 31.8938C248.195 32.2555 248.929 32.5569 249.688 32.798C250.471 33.015 251.266 33.1235 252.073 33.1235C253.003 33.1235 253.651 32.9909 254.018 32.7257C254.41 32.4604 254.606 32.147 254.606 31.7853C254.606 31.5682 254.557 31.3874 254.459 31.2427C254.385 31.0739 254.239 30.9172 254.018 30.7725C253.798 30.6278 253.48 30.4952 253.064 30.3747C252.673 30.23 252.159 30.0612 251.523 29.8683L250.385 29.5427C248.941 29.0846 247.889 28.4577 247.229 27.6619C246.568 26.8421 246.238 25.7449 246.238 24.3705C246.238 23.5748 246.397 22.8514 246.715 22.2003C247.033 21.5251 247.486 20.9464 248.073 20.4642C248.684 19.9578 249.418 19.572 250.275 19.3067C251.156 19.0174 252.159 18.8727 253.284 18.8727C254.41 18.8727 255.45 18.9812 256.404 19.1982C257.383 19.3911 258.264 19.6684 259.046 20.0301L257.945 23.7194Z" fill="white"/>
<path d="M50.3584 46.5191V41.1784H52.3235C52.8261 41.1784 53.2061 41.2363 53.4636 41.352C53.7211 41.4653 53.8949 41.6315 53.9849 41.8506C54.0774 42.0698 54.1237 42.3345 54.1237 42.6447C54.1237 42.8811 54.0724 43.0891 53.9699 43.2689C53.8674 43.4486 53.6899 43.5804 53.4374 43.6641C53.7549 43.7355 53.9924 43.8918 54.1499 44.1332C54.3074 44.372 54.3862 44.6613 54.3862 45.0011C54.3862 45.5305 54.2349 45.9158 53.9324 46.1571C53.6299 46.3984 53.1486 46.5191 52.4885 46.5191H50.3584ZM51.116 43.4425H52.5073C52.8498 43.4425 53.0786 43.3711 53.1936 43.2283C53.3111 43.083 53.3699 42.8909 53.3699 42.6521C53.3699 42.3936 53.3361 42.199 53.2686 42.0685C53.2036 41.938 53.0861 41.8506 52.9161 41.8063C52.7486 41.7595 52.5123 41.7361 52.2073 41.7361H51.116V43.4425ZM51.116 45.9688H52.4323C52.7123 45.9688 52.9411 45.9417 53.1186 45.8875C53.2986 45.8334 53.4311 45.7312 53.5161 45.581C53.6011 45.4308 53.6436 45.2104 53.6436 44.9198C53.6436 44.7573 53.6149 44.6022 53.5574 44.4545C53.5024 44.3043 53.4011 44.1824 53.2536 44.0888C53.1061 43.9953 52.8936 43.9485 52.6161 43.9485H51.116V45.9688Z" fill="white"/>
<path d="M57.8261 46.6003C57.3835 46.6003 57.0198 46.5523 56.7348 46.4563C56.4522 46.3603 56.2322 46.2285 56.0747 46.0611C55.9172 45.8937 55.8072 45.7004 55.7447 45.4812C55.6847 45.2596 55.6547 45.0233 55.6547 44.7721V41.1784H56.4122V44.8497C56.4122 45.1772 56.4772 45.4234 56.6072 45.5884C56.7398 45.7533 56.9135 45.8641 57.1285 45.9208C57.3435 45.9749 57.5761 46.002 57.8261 46.002C58.0811 46.002 58.3086 45.9749 58.5086 45.9208C58.7111 45.8641 58.8712 45.7533 58.9887 45.5884C59.1062 45.4234 59.1649 45.1772 59.1649 44.8497V41.1784H59.9225V44.7721C59.9225 45.0183 59.8912 45.2523 59.8287 45.4739C59.7687 45.693 59.6625 45.8875 59.5099 46.0574C59.3574 46.2273 59.1449 46.3603 58.8724 46.4563C58.5999 46.5523 58.2511 46.6003 57.8261 46.6003Z" fill="white"/>
<path d="M61.4235 45.9651H62.4586V41.7287H61.4235V41.1784H64.2437V41.7287H63.2124V45.9651H64.2437V46.5191H61.4235V45.9651Z" fill="white"/>
<path d="M65.8122 41.1784H66.566V45.9466H68.9999V46.5191H65.8122V41.1784Z" fill="white"/>
<path d="M70.1484 46.5191V41.1784H72.3011C72.8036 41.1784 73.2049 41.2584 73.5049 41.4185C73.8049 41.5761 74.0212 41.7903 74.1537 42.0611C74.2887 42.332 74.3562 42.6373 74.3562 42.9771V44.7389C74.3562 45.3175 74.1862 45.7595 73.8462 46.0648C73.5086 46.3677 72.9961 46.5191 72.3086 46.5191H70.1484ZM70.906 45.9651H72.2336C72.4936 45.9651 72.7261 45.938 72.9311 45.8838C73.1386 45.8272 73.3024 45.7164 73.4224 45.5514C73.5424 45.3864 73.6024 45.1402 73.6024 44.8127V42.9328C73.6024 42.6028 73.5411 42.3529 73.4186 42.183C73.2986 42.0107 73.1349 41.8937 72.9274 41.8322C72.7223 41.7681 72.4911 41.7361 72.2336 41.7361H70.906V45.9651Z" fill="white"/>
<path d="M79.1358 44.4212L77.2157 41.1784H78.0145L79.5146 43.7712L81.0222 41.1784H81.7985L79.8896 44.4212V46.5191H79.1358V44.4212Z" fill="white"/>
<path d="M84.9497 46.6003C84.4971 46.6003 84.1246 46.5548 83.8321 46.4637C83.5421 46.3726 83.3158 46.2446 83.1533 46.0796C82.9908 45.9121 82.877 45.7139 82.812 45.4849C82.747 45.2559 82.7145 45.0023 82.7145 44.7241V43.0436C82.7145 42.7604 82.7458 42.5007 82.8083 42.2643C82.8733 42.0279 82.987 41.8223 83.1495 41.6475C83.312 41.4727 83.5383 41.3372 83.8283 41.2412C84.1208 41.1452 84.4946 41.0972 84.9497 41.0972C85.3872 41.0972 85.7472 41.1476 86.0297 41.2486C86.3123 41.3496 86.5323 41.4911 86.6898 41.6733C86.8473 41.8531 86.9573 42.0636 87.0198 42.3049C87.0848 42.5462 87.1173 42.8084 87.1173 43.0916V44.6724C87.1173 44.9457 87.0848 45.2005 87.0198 45.4369C86.9573 45.6708 86.846 45.8752 86.686 46.05C86.5285 46.2224 86.3085 46.3578 86.026 46.4563C85.7435 46.5523 85.3847 46.6003 84.9497 46.6003ZM84.9497 46.002C85.2722 46.002 85.5372 45.9712 85.7447 45.9097C85.9547 45.8457 86.1097 45.7299 86.2097 45.5625C86.3123 45.3951 86.3635 45.1538 86.3635 44.8386V42.9069C86.3635 42.5893 86.3123 42.3431 86.2097 42.1683C86.1072 41.9934 85.951 41.8716 85.741 41.8026C85.5334 41.7312 85.2697 41.6955 84.9497 41.6955C84.6321 41.6955 84.3634 41.7312 84.1434 41.8026C83.9233 41.8716 83.7558 41.9934 83.6408 42.1683C83.5283 42.3431 83.4721 42.5893 83.4721 42.9069V44.8386C83.4721 45.1538 83.5283 45.3951 83.6408 45.5625C83.7533 45.7299 83.9196 45.8457 84.1396 45.9097C84.3596 45.9712 84.6296 46.002 84.9497 46.002Z" fill="white"/>
<path d="M90.7747 46.6003C90.3322 46.6003 89.9684 46.5523 89.6834 46.4563C89.4009 46.3603 89.1809 46.2285 89.0233 46.0611C88.8658 45.8937 88.7558 45.7004 88.6933 45.4812C88.6333 45.2596 88.6033 45.0233 88.6033 44.7721V41.1784H89.3609V44.8497C89.3609 45.1772 89.4259 45.4234 89.5559 45.5884C89.6884 45.7533 89.8622 45.8641 90.0772 45.9208C90.2922 45.9749 90.5247 46.002 90.7747 46.002C91.0297 46.002 91.2573 45.9749 91.4573 45.9208C91.6598 45.8641 91.8198 45.7533 91.9373 45.5884C92.0548 45.4234 92.1136 45.1772 92.1136 44.8497V41.1784H92.8711V44.7721C92.8711 45.0183 92.8399 45.2523 92.7774 45.4739C92.7174 45.693 92.6111 45.8875 92.4586 46.0574C92.3061 46.2273 92.0936 46.3603 91.821 46.4563C91.5485 46.5523 91.1998 46.6003 90.7747 46.6003Z" fill="white"/>
<path d="M94.4771 46.5191V41.1784H96.8961C97.2011 41.1784 97.4661 41.2277 97.6911 41.3262C97.9186 41.4222 98.0949 41.5859 98.2199 41.8174C98.3474 42.0464 98.4112 42.3603 98.4112 42.7592C98.4112 43.1901 98.3399 43.5102 98.1974 43.7195C98.0574 43.9263 97.8736 44.0765 97.6461 44.1701L98.7974 46.5191H98.0211L96.9448 44.303H95.2347V46.5191H94.4771ZM95.2347 43.7416H96.8323C97.0523 43.7416 97.2211 43.701 97.3386 43.6198C97.4561 43.5385 97.5374 43.4289 97.5824 43.2911C97.6299 43.1507 97.6536 42.9956 97.6536 42.8257C97.6536 42.6533 97.6386 42.4847 97.6086 42.3197C97.5811 42.1547 97.5161 42.0181 97.4136 41.9097C97.3111 41.7989 97.1461 41.7435 96.9186 41.7435H95.2347V43.7416Z" fill="white"/>
<path d="M101.964 41.1784H104.132C104.587 41.1784 104.952 41.3065 105.227 41.5625C105.502 41.8186 105.64 42.2507 105.64 42.8589C105.64 43.2849 105.577 43.6222 105.452 43.8709C105.327 44.1196 105.151 44.2981 104.923 44.4065C104.696 44.5123 104.428 44.5653 104.121 44.5653H102.722V46.5191H101.964V41.1784ZM104.136 44.0002C104.356 44.0002 104.518 43.9485 104.623 43.8451C104.728 43.7392 104.797 43.6025 104.83 43.4351C104.865 43.2677 104.882 43.0928 104.882 42.9106C104.882 42.7358 104.868 42.5585 104.841 42.3788C104.813 42.199 104.748 42.0488 104.646 41.9282C104.546 41.8051 104.382 41.7435 104.155 41.7435H102.722V44.0002H104.136Z" fill="white"/>
<path d="M106.976 46.5191V41.1784H109.395C109.7 41.1784 109.965 41.2277 110.19 41.3262C110.417 41.4222 110.593 41.5859 110.718 41.8174C110.846 42.0464 110.91 42.3603 110.91 42.7592C110.91 43.1901 110.838 43.5102 110.696 43.7195C110.556 43.9263 110.372 44.0765 110.145 44.1701L111.296 46.5191H110.52L109.443 44.303H107.733V46.5191H106.976ZM107.733 43.7416H109.331C109.551 43.7416 109.72 43.701 109.837 43.6198C109.955 43.5385 110.036 43.4289 110.081 43.2911C110.128 43.1507 110.152 42.9956 110.152 42.8257C110.152 42.6533 110.137 42.4847 110.107 42.3197C110.08 42.1547 110.015 42.0181 109.912 41.9097C109.81 41.7989 109.645 41.7435 109.417 41.7435H107.733V43.7416Z" fill="white"/>
<path d="M114.62 46.6003C114.167 46.6003 113.795 46.5548 113.502 46.4637C113.212 46.3726 112.986 46.2446 112.823 46.0796C112.661 45.9121 112.547 45.7139 112.482 45.4849C112.417 45.2559 112.385 45.0023 112.385 44.7241V43.0436C112.385 42.7604 112.416 42.5007 112.478 42.2643C112.543 42.0279 112.657 41.8223 112.82 41.6475C112.982 41.4727 113.208 41.3372 113.498 41.2412C113.791 41.1452 114.165 41.0972 114.62 41.0972C115.057 41.0972 115.417 41.1476 115.7 41.2486C115.982 41.3496 116.202 41.4911 116.36 41.6733C116.517 41.8531 116.627 42.0636 116.69 42.3049C116.755 42.5462 116.787 42.8084 116.787 43.0916V44.6724C116.787 44.9457 116.755 45.2005 116.69 45.4369C116.627 45.6708 116.516 45.8752 116.356 46.05C116.199 46.2224 115.979 46.3578 115.696 46.4563C115.413 46.5523 115.055 46.6003 114.62 46.6003ZM114.62 46.002C114.942 46.002 115.207 45.9712 115.415 45.9097C115.625 45.8457 115.78 45.7299 115.88 45.5625C115.982 45.3951 116.034 45.1538 116.034 44.8386V42.9069C116.034 42.5893 115.982 42.3431 115.88 42.1683C115.777 41.9934 115.621 41.8716 115.411 41.8026C115.203 41.7312 114.94 41.6955 114.62 41.6955C114.302 41.6955 114.033 41.7312 113.813 41.8026C113.593 41.8716 113.426 41.9934 113.311 42.1683C113.198 42.3431 113.142 42.5893 113.142 42.9069V44.8386C113.142 45.1538 113.198 45.3951 113.311 45.5625C113.423 45.7299 113.59 45.8457 113.81 45.9097C114.03 45.9712 114.3 46.002 114.62 46.002Z" fill="white"/>
<path d="M118.341 46.5191V41.1784H119.035L120.88 44.1332L122.706 41.1784H123.374V46.5191H122.661V42.3788L121.142 44.8275H120.583L119.061 42.3862V46.5191H118.341Z" fill="white"/>
<path d="M124.942 45.9651H125.977V41.7287H124.942V41.1784H127.762V41.7287H126.731V45.9651H127.762V46.5191H124.942V45.9651Z" fill="white"/>
<path d="M129.331 41.1784H129.905L133.01 45.4517V41.1784H133.674V46.5191H133.002L129.995 42.4416V46.5191H129.331V41.1784Z" fill="white"/>
<path d="M135.347 41.1784H138.734V41.7324H136.101V43.4905H138.426V44.0445H136.101V45.9651H138.779V46.5191H135.347V41.1784Z" fill="white"/>
<path d="M140.096 41.1784H140.67L143.775 45.4517V41.1784H144.439V46.5191H143.767L140.76 42.4416V46.5191H140.096V41.1784Z" fill="white"/>
<path d="M147.174 46.5191V41.7878H145.61V41.1784H149.495V41.7878H147.927V46.5191H147.174Z" fill="white"/>
<path d="M152.13 41.1784H152.906L154.402 45.4332L155.899 41.1784H156.682L154.728 46.5191H154.065L152.13 41.1784Z" fill="white"/>
<path d="M157.861 41.1784H161.247V41.7324H158.615V43.4905H160.94V44.0445H158.615V45.9651H161.292V46.5191H157.861V41.1784Z" fill="white"/>
<path d="M162.61 41.1784H163.183L166.289 45.4517V41.1784H166.952V46.5191H166.281L163.273 42.4416V46.5191H162.61V41.1784Z" fill="white"/>
<path d="M169.687 46.5191V41.7878H168.123V41.1784H172.009V41.7878H170.441V46.5191H169.687Z" fill="white"/>
<path d="M175.284 46.6003C174.841 46.6003 174.477 46.5523 174.192 46.4563C173.91 46.3603 173.69 46.2285 173.532 46.0611C173.375 45.8937 173.265 45.7004 173.202 45.4812C173.142 45.2596 173.112 45.0233 173.112 44.7721V41.1784H173.87V44.8497C173.87 45.1772 173.935 45.4234 174.065 45.5884C174.197 45.7533 174.371 45.8641 174.586 45.9208C174.801 45.9749 175.034 46.002 175.284 46.002C175.539 46.002 175.766 45.9749 175.966 45.9208C176.169 45.8641 176.329 45.7533 176.446 45.5884C176.564 45.4234 176.622 45.1772 176.622 44.8497V41.1784H177.38V44.7721C177.38 45.0183 177.349 45.2523 177.286 45.4739C177.226 45.693 177.12 45.8875 176.967 46.0574C176.815 46.2273 176.602 46.3603 176.33 46.4563C176.057 46.5523 175.709 46.6003 175.284 46.6003Z" fill="white"/>
<path d="M178.986 46.5191V41.1784H181.405C181.71 41.1784 181.975 41.2277 182.2 41.3262C182.427 41.4222 182.604 41.5859 182.729 41.8174C182.856 42.0464 182.92 42.3603 182.92 42.7592C182.92 43.1901 182.849 43.5102 182.706 43.7195C182.566 43.9263 182.382 44.0765 182.155 44.1701L183.306 46.5191H182.53L181.454 44.303H179.743V46.5191H178.986ZM179.743 43.7416H181.341C181.561 43.7416 181.73 43.701 181.847 43.6198C181.965 43.5385 182.046 43.4289 182.091 43.2911C182.139 43.1507 182.162 42.9956 182.162 42.8257C182.162 42.6533 182.147 42.4847 182.117 42.3197C182.09 42.1547 182.025 42.0181 181.922 41.9097C181.82 41.7989 181.655 41.7435 181.427 41.7435H179.743V43.7416Z" fill="white"/>
<path d="M184.515 41.1784H187.901V41.7324H185.269V43.4905H187.594V44.0445H185.269V45.9651H187.946V46.5191H184.515V41.1784Z" fill="white"/>
<defs>
<linearGradient id="paint0_linear_1120_921" x1="37.3549" y1="1.61413" x2="-4.06975" y2="49.7669" gradientUnits="userSpaceOnUse">
<stop offset="0.104981" stop-color="#00FFD1"/>
<stop offset="0.673525" stop-color="#276CEC"/>
<stop offset="0.972594" stop-color="#276CEC" stop-opacity="0"/>
</linearGradient>
</defs>
</svg>
